<svg width="19" height="19" viewBox="0 0 19 19" fill="none" xmlns="http://www.w3.org/2000/svg">
<path d="M9.5 14.25C9.76917 14.25 9.99495 14.1588 10.1774 13.9764C10.3591 13.7946 10.45 13.5692 10.45 13.3V10.45H13.3237C13.5929 10.45 13.8146 10.3588 13.9888 10.1764C14.1629 9.99463 14.25 9.76917 14.25 9.5C14.25 9.23083 14.1588 9.00505 13.9764 8.82265C13.7946 8.64088 13.5692 8.55 13.3 8.55H10.45V5.67625C10.45 5.40708 10.3591 5.18542 10.1774 5.01125C9.99495 4.83708 9.76917 4.75 9.5 4.75C9.23083 4.75 9.00537 4.84088 8.8236 5.02265C8.6412 5.20505 8.55 5.43083 8.55 5.7V8.55H5.67625C5.40708 8.55 5.18542 8.64088 5.01125 8.82265C4.83708 9.00505 4.75 9.23083 4.75 9.5C4.75 9.76917 4.84088 9.99463 5.02265 10.1764C5.20505 10.3588 5.43083 10.45 5.7 10.45H8.55V13.3237C8.55 13.5929 8.6412 13.8146 8.8236 13.9888C9.00537 14.1629 9.23083 14.25 9.5 14.25ZM9.5 19C8.18583 19 6.95083 18.7505 5.795 18.2514C4.63917 17.753 3.63375 17.0763 2.77875 16.2213C1.92375 15.3663 1.24703 14.3608 0.7486 13.205C0.249533 12.0492 0 10.8142 0 9.5C0 8.18583 0.249533 6.95083 0.7486 5.795C1.24703 4.63917 1.92375 3.63375 2.77875 2.77875C3.63375 1.92375 4.63917 1.24672 5.795 0.74765C6.95083 0.249217 8.18583 0 9.5 0C10.8142 0 12.0492 0.249217 13.205 0.74765C14.3608 1.24672 15.3663 1.92375 16.2213 2.77875C17.0763 3.63375 17.753 4.63917 18.2514 5.795C18.7505 6.95083 19 8.18583 19 9.5C19 10.8142 18.7505 12.0492 18.2514 13.205C17.753 14.3608 17.0763 15.3663 16.2213 16.2213C15.3663 17.0763 14.3608 17.753 13.205 18.2514C12.0492 18.7505 10.8142 19 9.5 19ZM9.5 17.1C11.6058 17.1 13.3991 16.3599 14.8799 14.8799C16.3599 13.3991 17.1 11.6058 17.1 9.5C17.1 7.39417 16.3599 5.60088 14.8799 4.12015C13.3991 2.64005 11.6058 1.9 9.5 1.9C7.39417 1.9 5.6012 2.64005 4.1211 4.12015C2.64037 5.60088 1.9 7.39417 1.9 9.5C1.9 11.6058 2.64037 13.3991 4.1211 14.8799C5.6012 16.3599 7.39417 17.1 9.5 17.1Z" fill="white"/>
</svg>
