<svg width="25" height="28" viewBox="0 0 25 28" fill="none" xmlns="http://www.w3.org/2000/svg">
<path d="M17.0825 20.2544L13.8682 23.4688L17.0825 26.6831L15.8081 27.9575L12.5938 24.7432L9.37939 27.9575L8.10498 26.6831L11.3193 23.4688L8.10498 20.2544L9.37939 18.98L12.5938 22.1943L15.8081 18.98L17.0825 20.2544ZM7.60938 22.5625L8.51562 23.4688L7.60938 24.375H0.8125V22.5625H7.60938ZM16.6719 23.4688L17.5781 22.5625H24.375V24.375H17.5781L16.6719 23.4688ZM0.8125 0.8125H24.375V17.125H13.5V18.4844L12.5938 19.3906L11.6875 18.4844V17.125H0.8125V0.8125ZM22.5625 15.3125V2.625H2.625V15.3125H22.5625Z" fill="#2CAFA4"/>
</svg>
