<svg width="21" height="23" viewBox="0 0 21 23" fill="none" xmlns="http://www.w3.org/2000/svg">
<path d="M0.517221 12.8662L9.26001 22.4535C9.42631 22.6281 9.6224 22.7649 9.83704 22.8562C10.2627 23.0479 10.7402 23.0479 11.1659 22.8562C11.3806 22.7649 11.5767 22.6281 11.743 22.4535L20.4858 12.8662C20.6488 12.6874 20.7781 12.4752 20.8664 12.2416C20.9546 12.008 21 11.7576 21 11.5048C21 10.9942 20.815 10.5044 20.4858 10.1434C20.1565 9.78232 19.7099 9.57947 19.2443 9.57947C18.7786 9.57947 18.3321 9.78232 18.0028 10.1434L12.25 16.471L12.25 1.91746C12.25 1.40892 12.0658 0.921204 11.7379 0.56161C11.41 0.202018 10.9652 8.77267e-07 10.5015 9.17809e-07C10.0377 9.58351e-07 9.59299 0.202018 9.26507 0.56161C8.93715 0.921205 8.75293 1.40892 8.75293 1.91746L8.75293 16.471L3.00017 10.1434C2.83762 9.96366 2.64423 9.82101 2.43115 9.72367C2.21807 9.62632 1.98953 9.5762 1.7587 9.5762C1.52787 9.5762 1.29932 9.62632 1.08624 9.72367C0.873162 9.82101 0.679772 9.96366 0.51722 10.1434C0.353331 10.3216 0.223245 10.5337 0.134473 10.7674C0.0457009 11.001 -1.02707e-06 11.2517 -1.00494e-06 11.5048C-9.82815e-07 11.7579 0.045701 12.0085 0.134473 12.2422C0.223245 12.4759 0.353332 12.6879 0.517221 12.8662Z" fill="black"/>
</svg>
