<svg width="25" height="26" viewBox="0 0 25 26" fill="none" xmlns="http://www.w3.org/2000/svg">
<path fill-rule="evenodd" clip-rule="evenodd" d="M12.4583 21.6667C12.4583 21.3793 12.3486 21.1038 12.1532 20.9006C11.9579 20.6975 11.6929 20.5833 11.4167 20.5833H6.20833V5.41667H11.4167C11.6929 5.41667 11.9579 5.30253 12.1532 5.09937C12.3486 4.8962 12.4583 4.62065 12.4583 4.33333C12.4583 4.04602 12.3486 3.77047 12.1532 3.5673C11.9579 3.36414 11.6929 3.25 11.4167 3.25H6.20833C5.6558 3.25 5.12589 3.47827 4.73519 3.8846C4.34449 4.29093 4.125 4.84203 4.125 5.41667V20.5833C4.125 21.158 4.34449 21.7091 4.73519 22.1154C5.12589 22.5217 5.6558 22.75 6.20833 22.75H11.4167C11.6929 22.75 11.9579 22.6359 12.1532 22.4327C12.3486 22.2295 12.4583 21.954 12.4583 21.6667Z" fill="white"/>
<path d="M23.6194 13.7581C23.8099 13.5567 23.9169 13.2856 23.9173 13.0031V12.9966C23.9168 12.7103 23.807 12.436 23.6121 12.2339L19.4454 7.90055C19.3494 7.79708 19.2344 7.71455 19.1073 7.65778C18.9802 7.601 18.8435 7.57112 18.7052 7.56987C18.5669 7.56862 18.4298 7.59603 18.3017 7.6505C18.1737 7.70497 18.0574 7.78541 17.9596 7.88712C17.8618 7.98884 17.7845 8.1098 17.7321 8.24294C17.6797 8.37607 17.6534 8.51873 17.6546 8.66257C17.6558 8.80642 17.6845 8.94857 17.7391 9.08074C17.7937 9.21291 17.873 9.33245 17.9725 9.43239L20.3611 11.9165H10.3757C10.0994 11.9165 9.83443 12.0306 9.63908 12.2338C9.44373 12.4369 9.33398 12.7125 9.33398 12.9998C9.33398 13.2871 9.44373 13.5627 9.63908 13.7658C9.83443 13.969 10.0994 14.0831 10.3757 14.0831H20.3611L17.9725 16.5672C17.7828 16.7715 17.6778 17.0452 17.6802 17.3292C17.6825 17.6133 17.7921 17.885 17.9852 18.0859C18.1783 18.2867 18.4396 18.4006 18.7127 18.4031C18.9859 18.4056 19.249 18.2964 19.4454 18.0991L23.6121 13.7657L23.6194 13.7581Z" fill="white"/>
</svg>
