<svg width="22" height="21" viewBox="0 0 22 21" fill="none" xmlns="http://www.w3.org/2000/svg">
<path d="M20.4286 12H12.5714V19.5C12.5714 19.8978 12.4059 20.2794 12.1112 20.5607C11.8165 20.842 11.4168 21 11 21C10.5832 21 10.1835 20.842 9.88883 20.5607C9.59413 20.2794 9.42857 19.8978 9.42857 19.5V12H1.57143C1.15466 12 0.754961 11.842 0.460261 11.5607C0.165561 11.2794 0 10.8978 0 10.5C0 10.1022 0.165561 9.72065 0.460261 9.43934C0.754961 9.15804 1.15466 9 1.57143 9H9.42857V1.5C9.42857 1.10218 9.59413 0.720644 9.88883 0.439339C10.1835 0.158035 10.5832 0 11 0C11.4168 0 11.8165 0.158035 12.1112 0.439339C12.4059 0.720644 12.5714 1.10218 12.5714 1.5V9H20.4286C20.8453 9 21.245 9.15804 21.5397 9.43934C21.8344 9.72065 22 10.1022 22 10.5C22 10.8978 21.8344 11.2794 21.5397 11.5607C21.245 11.842 20.8453 12 20.4286 12Z" fill="white"/>
</svg>
