<svg width="25" height="30" viewBox="0 0 25 30" fill="none" xmlns="http://www.w3.org/2000/svg">
<path d="M6.87231 12.5623C5.82703 11.2774 4.84616 11.0012 3.92844 11.7344C2.55187 12.8342 2.1568 16.6685 3.264 20.0489C4.37182 23.4294 6.52553 28.0328 10.8738 28.0328C15.2215 28.0328 16.2501 23.4009 18.0236 20.6007C19.7977 17.8005 20.7358 15.0987 18.9976 11.7344" stroke="black" stroke-width="2.5" stroke-linecap="round" stroke-linejoin="round"/>
<path d="M4.68019 11.3348C3.86156 10.0841 3.0359 8.83793 2.20324 7.59648C1.30782 6.26821 3.59714 4.55106 4.68019 5.71894C5.40223 6.49795 6.36143 7.64478 7.5578 9.16006" stroke="black" stroke-width="2.5" stroke-linecap="round"/>
<path d="M7.17252 16.0434C6.87219 12.2883 7.11679 9.84357 7.90446 8.70851C9.08721 7.0056 11.2837 6.36035 13.3519 6.36035C14.5842 6.36035 15.7087 6.88485 16.7268 7.93384" stroke="black" stroke-width="2.5" stroke-linecap="round" stroke-linejoin="round"/>
<path d="M23.2576 7.97595C23.6205 9.23672 23.0285 10.3891 21.2042 10.6498C19.3806 10.9105 18.0133 11.8276 17.0275 12.5992C16.041 13.3708 14.2781 15.7115 13.9294 16.8862C13.5814 18.0615 11.5912 16.9809 11.0568 16.5115C10.5224 16.0428 9.99664 15.0155 11.0568 13.9411C12.1169 12.8667 11.8872 12.6524 11.8872 11.5632C11.8872 10.4733 17.6845 6.86937 20.9497 6.53993C21.6755 6.49783 22.8954 6.71456 23.2576 7.97595Z" stroke="black" stroke-width="2.5"/>
<path d="M12.1164 2.64277V5.90183M10.4438 6.80282C8.57492 4.45405 7.06831 3.14312 5.92334 2.87065M8.39844 4.51845L9.01149 2M19.9219 6.8022C19.7225 7.48646 19.7225 8.12737 19.9219 8.72618C20.1213 9.32498 20.5492 9.96589 21.2043 10.6502" stroke="black" stroke-width="2.5" stroke-linecap="round"/>
</svg>
