<svg width="55" height="55" viewBox="0 0 55 55" fill="none" xmlns="http://www.w3.org/2000/svg">
<rect x="1.5" y="1.5" width="52" height="52" rx="6.5" stroke="#A8BEC5" stroke-width="3"/>
<path d="M14.1611 36.4345C14.1611 35.2352 15.0574 34.2216 16.2509 34.0893C25.208 33.0978 31.0189 33.1872 39.9562 34.1114C40.4025 34.1582 40.8255 34.334 41.1735 34.6174C41.5216 34.9007 41.7795 35.2792 41.916 35.7067C42.0524 36.1342 42.0614 36.5922 41.9418 37.0247C41.8222 37.4573 41.5793 37.8456 41.2426 38.1423C30.6949 47.3363 24.667 47.2098 14.9042 38.1516C14.4282 37.7105 14.1611 37.0835 14.1611 36.4357V36.4345Z" fill="#A8BEC5"/>
<path fill-rule="evenodd" clip-rule="evenodd" d="M39.8365 35.2653C30.97 34.3482 25.2428 34.2622 16.3774 35.2433C16.0855 35.2773 15.8165 35.4177 15.6218 35.6377C15.4271 35.8577 15.3203 36.1418 15.322 36.4356C15.322 36.7677 15.4602 37.0823 15.6935 37.3006C20.5326 41.789 24.199 43.8173 27.783 43.83C31.3798 43.8428 35.2436 41.8308 40.4797 37.2681C40.6461 37.12 40.7658 36.9268 40.8244 36.712C40.883 36.4971 40.8779 36.2699 40.8098 36.0579C40.7417 35.8458 40.6134 35.6582 40.4406 35.5177C40.2679 35.3772 40.058 35.2899 39.8365 35.2665V35.2653ZM16.1231 32.9352C25.1743 31.9333 31.0698 32.0238 40.0768 32.9561C40.7483 33.0262 41.3847 33.2905 41.9082 33.7167C42.4317 34.1429 42.8195 34.7125 43.0243 35.3558C43.2291 35.999 43.2418 36.688 43.0611 37.3384C42.8803 37.9888 42.5138 38.5724 42.0064 39.0177C36.6949 43.6478 32.2714 46.1695 27.7761 46.152C23.2679 46.1358 19.0395 43.5711 14.1157 39.0026C13.7632 38.6742 13.4822 38.2767 13.2902 37.8348C13.0982 37.393 12.9994 36.9162 13 36.4345C12.9983 35.5689 13.316 34.7331 13.8923 34.0872C14.4686 33.4413 15.2629 33.0307 16.1231 32.9341V32.9352Z" fill="#A8BEC5"/>
<path d="M37.3807 18.288C37.3807 20.7513 36.4021 23.1138 34.6603 24.8556C32.9185 26.5974 30.556 27.576 28.0927 27.576C25.6294 27.576 23.2669 26.5974 21.5251 24.8556C19.7832 23.1138 18.8047 20.7513 18.8047 18.288C18.8047 15.8247 19.7832 13.4622 21.5251 11.7204C23.2669 9.97855 25.6294 9 28.0927 9C30.556 9 32.9185 9.97855 34.6603 11.7204C36.4021 13.4622 37.3807 15.8247 37.3807 18.288Z" fill="#A8BEC5"/>
<path fill-rule="evenodd" clip-rule="evenodd" d="M28.0927 25.254C29.9402 25.254 31.712 24.5201 33.0184 23.2137C34.3248 21.9073 35.0587 20.1355 35.0587 18.288C35.0587 16.4405 34.3248 14.6687 33.0184 13.3623C31.712 12.0559 29.9402 11.322 28.0927 11.322C26.2452 11.322 24.4734 12.0559 23.167 13.3623C21.8606 14.6687 21.1267 16.4405 21.1267 18.288C21.1267 20.1355 21.8606 21.9073 23.167 23.2137C24.4734 24.5201 26.2452 25.254 28.0927 25.254ZM28.0927 27.576C30.556 27.576 32.9185 26.5974 34.6603 24.8556C36.4021 23.1138 37.3807 20.7513 37.3807 18.288C37.3807 15.8247 36.4021 13.4622 34.6603 11.7204C32.9185 9.97855 30.556 9 28.0927 9C25.6294 9 23.2669 9.97855 21.5251 11.7204C19.7832 13.4622 18.8047 15.8247 18.8047 18.288C18.8047 20.7513 19.7832 23.1138 21.5251 24.8556C23.2669 26.5974 25.6294 27.576 28.0927 27.576Z" fill="#A8BEC5"/>
</svg>
