<svg width="22" height="26" viewBox="0 0 22 26" fill="none" xmlns="http://www.w3.org/2000/svg">
<path d="M9 19.5001H17V21.3572H9V19.5001ZM5 19.5001H7V21.3572H5V19.5001ZM9 14.8572H17V16.7144H9V14.8572ZM5 14.8572H7V16.7144H5V14.8572ZM9 10.2144H17V12.0715H9V10.2144ZM5 10.2144H7V12.0715H5V10.2144Z" fill="black"/>
<path d="M20 2.78571H17V1.85714C17 1.3646 16.7893 0.892226 16.4142 0.543944C16.0391 0.195663 15.5304 0 15 0H7C6.46957 0 5.96086 0.195663 5.58579 0.543944C5.21071 0.892226 5 1.3646 5 1.85714V2.78571H2C1.46957 2.78571 0.960859 2.98138 0.585786 3.32966C0.210714 3.67794 0 4.15031 0 4.64286V24.1429C0 24.6354 0.210714 25.1078 0.585786 25.4561C0.960859 25.8043 1.46957 26 2 26H20C20.5304 26 21.0391 25.8043 21.4142 25.4561C21.7893 25.1078 22 24.6354 22 24.1429V4.64286C22 4.15031 21.7893 3.67794 21.4142 3.32966C21.0391 2.98138 20.5304 2.78571 20 2.78571ZM7 1.85714H15V5.57143H7V1.85714ZM20 24.1429H2V4.64286H5V7.42857H17V4.64286H20V24.1429Z" fill="black"/>
</svg>
