<svg width="21" height="23" viewBox="0 0 21 23" fill="none" xmlns="http://www.w3.org/2000/svg">
<path d="M20.4828 10.1338L11.74 0.546503C11.5737 0.371936 11.3776 0.235096 11.163 0.143836C10.7373 -0.0479452 10.2598 -0.0479452 9.83406 0.143836C9.61942 0.235096 9.42333 0.371936 9.25703 0.546503L0.514237 10.1338C0.351204 10.3126 0.221879 10.5248 0.133646 10.7584C0.0454134 10.992 0 11.2424 0 11.4952C0 12.0058 0.184977 12.4956 0.514237 12.8566C0.843497 13.2177 1.29007 13.4205 1.75571 13.4205C2.22136 13.4205 2.66793 13.2177 2.99719 12.8566L8.74995 6.52899V21.0825C8.74995 21.5911 8.93417 22.0788 9.26209 22.4384C9.59001 22.798 10.0348 23 10.4985 23C10.9623 23 11.407 22.798 11.7349 22.4384C12.0628 22.0788 12.2471 21.5911 12.2471 21.0825V6.52899L17.9998 12.8566C18.1624 13.0363 18.3558 13.179 18.5688 13.2763C18.7819 13.3737 19.0105 13.4238 19.2413 13.4238C19.4721 13.4238 19.7007 13.3737 19.9138 13.2763C20.1268 13.179 20.3202 13.0363 20.4828 12.8566C20.6467 12.6784 20.7768 12.4663 20.8655 12.2326C20.9543 11.999 21 11.7483 21 11.4952C21 11.2421 20.9543 10.9915 20.8655 10.7578C20.7768 10.5241 20.6467 10.3121 20.4828 10.1338Z" fill="black"/>
</svg>
