<svg width="83" height="85" viewBox="0 0 83 85" fill="none" xmlns="http://www.w3.org/2000/svg">
<path d="M41.5464 29.6636C41.5464 29.6636 37.29 24.4021 37.29 15.6936C37.29 6.985 41.5464 0 41.5464 0C41.5464 0 45.7103 5.17071 45.7103 15.6936C45.7103 26.2164 41.5464 29.6636 41.5464 29.6636Z" fill="#2CAFA4"/>
<path d="M54.9627 37.7372C54.9627 37.7372 54.2151 33.2764 55.4254 29.4822C57.6231 22.5924 68.4722 14.0607 68.4722 14.0607C68.4722 14.0607 70.2303 19.4129 68.4722 24.8557C66.7141 30.2986 61.2548 37.1929 58.7565 37.7372C56.2582 38.2814 54.9627 37.7372 54.9627 37.7372Z" fill="#2CAFA4"/>
<path d="M63.2912 57.6035C63.2912 57.6035 62.8975 55.3227 63.2912 53.5214C64.4998 47.9921 69.2963 45.117 74.95 43.9964C78.0347 43.385 83.0002 44.3593 83.0002 44.3593C83.0002 44.3593 82.7073 47.3861 81.9823 49.1671C80.0937 53.8069 77.0588 56.1813 72.1741 57.6035C68.8487 58.5718 63.2912 57.6035 63.2912 57.6035Z" fill="#2CAFA4"/>
<path d="M28.0373 37.7372C28.0373 37.7372 28.7849 33.2764 27.5746 29.4822C25.3769 22.5924 14.5278 14.0607 14.5278 14.0607C14.5278 14.0607 12.7697 19.4129 14.5278 24.8557C16.2859 30.2986 21.7452 37.1929 24.2435 37.7372C26.7418 38.2814 28.0373 37.7372 28.0373 37.7372Z" fill="#2CAFA4"/>
<path d="M19.7088 57.6035C19.7088 57.6035 20.1025 55.3227 19.7088 53.5214C18.5002 47.9921 13.7037 45.117 8.04998 43.9964C4.96529 43.385 -0.000183401 44.3593 -0.000183401 44.3593C-0.000183401 44.3593 0.292684 47.3861 1.01765 49.1671C2.90629 53.8069 5.94117 56.1813 10.8259 57.6035C14.1513 58.5718 19.7088 57.6035 19.7088 57.6035Z" fill="#2CAFA4"/>
<path fill-rule="evenodd" clip-rule="evenodd" d="M78.9725 84.2473C69.0199 75.5728 55.9107 70.3036 41.5461 70.3036C26.7706 70.3036 13.3233 75.8786 3.27344 85C11.0745 72.3839 25.2135 63.9536 41.361 63.9536C57.1852 63.9536 71.0806 72.0497 78.9725 84.2473Z" fill="#2CAFA4"/>
<path d="M41.3613 62.7742C41.3613 62.7742 43.339 53.7364 47.2833 49.6207C50.7083 46.0468 58.387 43.3614 58.387 43.3614C58.387 43.3614 50.5219 42.9985 48.2086 42.9985C45.8953 42.9985 41.3613 48.1692 41.3613 48.1692V62.7742Z" fill="#2CAFA4"/>
<path d="M41.3616 62.7743C41.3616 62.7743 39.4765 53.6457 35.5321 49.53C32.1071 45.9561 24.4285 43.2707 24.4285 43.2707C24.4285 43.2707 32.2936 42.9078 34.6068 42.9078C36.9201 42.9078 41.4541 48.0785 41.4541 48.0785L41.3616 62.7743Z" fill="#2CAFA4"/>
<ellipse cx="41.3611" cy="40.1864" rx="3.05351" ry="5.715" fill="#2CAFA4"/>
</svg>
