<svg width="36" height="34" viewBox="0 0 36 34" fill="none" xmlns="http://www.w3.org/2000/svg">
<path d="M0 11.724C0 5.641 4.036 0 9.563 0C13.398 0 16.243 2.53 18 6.121C19.756 2.531 22.602 0 26.438 0C31.965 0 36 5.642 36 11.724C35.9988 12.7853 35.8815 13.8433 35.65 14.879C34.6664 13.6661 33.4241 12.6883 32.014 12.0171C30.6039 11.346 29.0617 10.9985 27.5 11C21.701 11 17 15.701 17 21.5C16.9995 23.4708 17.5538 25.4019 18.5992 27.0726C19.6447 28.7432 21.1393 30.0859 22.912 30.947C20.122 32.908 18 34 18 34C18 34 0 25.304 0 11.724Z" fill="#FE5558"/>
<path fill-rule="evenodd" clip-rule="evenodd" d="M36 21.5C36 23.7543 35.1045 25.9163 33.5104 27.5104C31.9163 29.1045 29.7543 30 27.5 30C25.2457 30 23.0837 29.1045 21.4896 27.5104C19.8955 25.9163 19 23.7543 19 21.5C19 19.2457 19.8955 17.0837 21.4896 15.4896C23.0837 13.8955 25.2457 13 27.5 13C29.7543 13 31.9163 13.8955 33.5104 15.4896C35.1045 17.0837 36 19.2457 36 21.5ZM34 21.5C34 23.2239 33.3152 24.8772 32.0962 26.0962C30.8772 27.3152 29.2239 28 27.5 28C25.7761 28 24.1228 27.3152 22.9038 26.0962C21.6848 24.8772 21 23.2239 21 21.5C21 19.7761 21.6848 18.1228 22.9038 16.9038C24.1228 15.6848 25.7761 15 27.5 15C29.2239 15 30.8772 15.6848 32.0962 16.9038C33.3152 18.1228 34 19.7761 34 21.5Z" fill="#FE5558"/>
<path d="M27.7917 18V22.75" stroke="#FE5558" stroke-width="1.5" stroke-linecap="round"/>
<path d="M27.7917 25.9173C28.2289 25.9173 28.5833 25.5629 28.5833 25.1257C28.5833 24.6884 28.2289 24.334 27.7917 24.334C27.3544 24.334 27 24.6884 27 25.1257C27 25.5629 27.3544 25.9173 27.7917 25.9173Z" fill="#FE5558"/>
</svg>
