<svg width="38" height="30" viewBox="0 0 38 30" fill="none" xmlns="http://www.w3.org/2000/svg">
<path d="M9.5 14.5V16H10.6377L10.9444 14.9044L9.5 14.5ZM27.5 14.5V13H26.3393L26.048 14.1236L27.5 14.5ZM36 16C36.8284 16 37.5 15.3284 37.5 14.5C37.5 13.6716 36.8284 13 36 13V16ZM0 16H9.5V13H0V16ZM9.5 14.5C10.9444 14.9044 10.9444 14.9044 10.9445 14.9044C10.9445 14.9043 10.9445 14.9042 10.9445 14.9041C10.9446 14.9038 10.9448 14.9033 10.945 14.9026C10.9454 14.9012 10.9459 14.8991 10.9467 14.8962C10.9484 14.8905 10.9508 14.8818 10.954 14.8703C10.9605 14.8473 10.9702 14.8128 10.983 14.7676C11.0085 14.6773 11.0462 14.5444 11.0946 14.375C11.1915 14.036 11.3311 13.5512 11.5019 12.9691C11.8437 11.8039 12.3087 10.2539 12.8036 8.70716C13.3009 7.15315 13.8192 5.63144 14.2677 4.51021C14.495 3.94201 14.6851 3.52564 14.8283 3.27001C14.9036 3.13555 14.9323 3.10678 14.9107 3.13132C14.8995 3.14404 14.838 3.21365 14.7235 3.28898C14.6134 3.36147 14.361 3.5 14 3.5V0.5C13.5765 0.5 13.2568 0.662948 13.0747 0.782732C12.8883 0.905365 12.7504 1.04517 12.6586 1.14944C12.4759 1.35709 12.3269 1.59687 12.2108 1.8042C11.9711 2.23217 11.7238 2.79237 11.4823 3.39604C10.9933 4.61856 10.4491 6.22185 9.94636 7.79284C9.44133 9.37106 8.96885 10.9461 8.62315 12.1247C8.45014 12.7145 8.30853 13.2062 8.21006 13.5508C8.16082 13.7232 8.12234 13.8588 8.09611 13.9516C8.08299 13.998 8.07293 14.0337 8.06611 14.058C8.0627 14.0701 8.0601 14.0793 8.05833 14.0856C8.05745 14.0888 8.05677 14.0912 8.05631 14.0929C8.05608 14.0937 8.0559 14.0943 8.05577 14.0948C8.05571 14.095 8.05565 14.0952 8.05562 14.0953C8.05558 14.0955 8.05555 14.0956 9.5 14.5ZM14 3.5C13.6459 3.5 13.4088 3.35625 13.3184 3.29098C13.2278 3.22559 13.1979 3.17825 13.2212 3.20847C13.2685 3.2697 13.3709 3.43314 13.5198 3.75192C13.8101 4.37352 14.154 5.3151 14.5403 6.52033C15.3084 8.91657 16.1732 12.1275 17.0516 15.39C17.9232 18.6275 18.8084 21.9166 19.6028 24.3953C19.9978 25.6276 20.3883 26.7173 20.762 27.5175C20.9452 27.9097 21.1572 28.3049 21.4038 28.6245C21.5275 28.7847 21.6992 28.978 21.9262 29.1418C22.153 29.3055 22.5209 29.5 23 29.5V26.5C23.3541 26.5 23.5912 26.6438 23.6816 26.709C23.7722 26.7744 23.8021 26.8218 23.7788 26.7915C23.7315 26.7303 23.6291 26.5669 23.4802 26.2481C23.1899 25.6265 22.846 24.6849 22.4597 23.4797C21.6916 21.0834 20.8268 17.8725 19.9484 14.61C19.0768 11.3725 18.1916 8.08343 17.3972 5.60467C17.0022 4.3724 16.6117 3.28273 16.238 2.48245C16.0548 2.0903 15.8428 1.69514 15.5962 1.37551C15.4725 1.21531 15.3008 1.02197 15.0738 0.858193C14.847 0.694536 14.4791 0.5 14 0.5V3.5ZM23 29.5C23.4554 29.5 23.7907 29.3112 23.9697 29.184C24.1554 29.0521 24.2903 28.9037 24.3782 28.7959C24.5544 28.5796 24.6985 28.3294 24.8121 28.1104C25.0469 27.6576 25.2911 27.0609 25.5316 26.4116C26.0182 25.0978 26.5609 23.3716 27.0632 21.6761C27.5676 19.9738 28.0396 18.2744 28.3851 17.0025C28.5579 16.3661 28.6994 15.8355 28.7978 15.4637C28.847 15.2778 28.8854 15.1315 28.9116 15.0314C28.9247 14.9814 28.9347 14.9429 28.9415 14.9168C28.9449 14.9037 28.9475 14.8938 28.9492 14.887C28.9501 14.8836 28.9508 14.8811 28.9513 14.8793C28.9515 14.8784 28.9517 14.8777 28.9518 14.8773C28.9518 14.877 28.9519 14.8768 28.9519 14.8767C28.952 14.8765 28.952 14.8764 27.5 14.5C26.048 14.1236 26.048 14.1236 26.048 14.1236C26.048 14.1237 26.0479 14.1238 26.0479 14.124C26.0478 14.1243 26.0477 14.1249 26.0475 14.1256C26.0471 14.1271 26.0465 14.1294 26.0457 14.1325C26.0441 14.1388 26.0416 14.1482 26.0384 14.1607C26.0318 14.1856 26.0221 14.223 26.0093 14.2718C25.9838 14.3695 25.946 14.5132 25.8975 14.6965C25.8006 15.0629 25.6608 15.587 25.4899 16.2162C25.1479 17.4756 24.6824 19.1512 24.1868 20.8239C23.6891 22.5034 23.1693 24.1522 22.7184 25.3697C22.4901 25.9859 22.2969 26.444 22.1488 26.7294C22.071 26.8795 22.0374 26.9194 22.0525 26.9009C22.0598 26.8919 22.1183 26.8193 22.2321 26.7385C22.3392 26.6624 22.6071 26.5 23 26.5V29.5ZM27.5 16H36V13H27.5V16Z" fill="#FE5558"/>
</svg>
