<svg width="50" height="33" viewBox="0 0 50 33" fill="none" xmlns="http://www.w3.org/2000/svg">
<path d="M2 16.7722H9.74923C10.0755 16.7684 10.3949 16.6772 10.6747 16.508C10.9546 16.3389 11.1847 16.0977 11.3415 15.8094L17.7108 2.97222C17.8677 2.65261 18.118 2.38905 18.4279 2.21695C18.7379 2.04484 19.0926 1.97243 19.4446 2.00943C19.7952 2.03331 20.1298 2.16616 20.4023 2.38969C20.6748 2.61322 20.8718 2.91641 20.9662 3.25749L28.8569 29.7163C28.9605 30.0752 29.1733 30.3922 29.4654 30.6226C29.7575 30.8529 30.114 30.985 30.4846 31C30.8319 30.9884 31.1681 30.874 31.4512 30.6711C31.7344 30.4681 31.952 30.1857 32.0769 29.8589L36.9246 17.9132C37.0581 17.5781 37.2875 17.2907 37.5837 17.0875C37.8799 16.8843 38.2294 16.7745 38.5877 16.7722H48" stroke="#FE5558" stroke-width="3.5" stroke-linecap="round" stroke-linejoin="round"/>
</svg>
