<svg width="46" height="34" viewBox="0 0 46 34" fill="none" xmlns="http://www.w3.org/2000/svg">
<g clip-path="url(#clip0_277_718)">
<path d="M16.9999 2.125C17.2817 2.125 17.552 2.23694 17.7512 2.4362C17.9505 2.63546 18.0624 2.90571 18.0624 3.1875V14.3289L19.1249 15.0875V10.03C19.1249 8.01125 20.7612 6.375 22.7799 6.375C23.8934 6.375 24.9538 6.94875 25.8463 7.633C26.7622 8.3385 27.6462 9.27563 28.4303 10.2446C29.9943 12.1741 31.2927 14.3799 31.7878 15.5146C32.1618 16.3753 32.6229 17.9796 32.9693 19.788C33.3199 21.6091 33.5707 23.7341 33.4793 25.6509C33.3943 27.4932 32.9863 29.4546 31.7007 30.6021C30.2769 31.8771 28.2539 31.7836 25.876 30.5936L22.0617 28.6875C21.1792 28.2463 20.4371 27.5681 19.9184 26.7289C19.3997 25.8897 19.1249 24.9226 19.1249 23.936V17.6991L16.9999 16.1797L14.8749 17.6991V15.3298C14.6624 15.3298 14.4457 15.3935 14.2587 15.5274L8.94616 19.3226C8.82765 19.4015 8.72622 19.5034 8.64787 19.6223C8.56952 19.7412 8.51585 19.8746 8.49007 20.0146C8.46428 20.1546 8.46689 20.2983 8.49774 20.4373C8.5286 20.5763 8.58706 20.7077 8.66968 20.8236C8.75229 20.9395 8.85736 21.0377 8.97865 21.1122C9.09993 21.1868 9.23497 21.2362 9.37572 21.2575C9.51647 21.2789 9.66008 21.2717 9.79801 21.2365C9.93595 21.2012 10.0654 21.1386 10.1787 21.0524L14.8749 17.6991V23.936C14.8749 24.9226 14.6001 25.8897 14.0814 26.7289C13.5627 27.5681 12.8206 28.2463 11.9382 28.6875L8.12378 30.5936C5.74378 31.7836 3.72503 31.875 2.29916 30.6021C1.01353 29.4546 0.603405 27.4932 0.518405 25.6509C0.429155 23.7341 0.679905 21.6091 1.02841 19.788C1.37691 17.9775 1.83591 16.3753 2.21416 15.5125C2.70716 14.3799 4.00553 12.1741 5.56953 10.2446C6.35578 9.27563 7.23766 8.3385 8.15353 7.633C9.04603 6.94875 10.1064 6.375 11.2199 6.375C13.2387 6.375 14.8749 8.01125 14.8749 10.03V15.0875L15.9374 14.3289V3.1875C15.9374 2.90571 16.0493 2.63546 16.2486 2.4362C16.4479 2.23694 16.7181 2.125 16.9999 2.125ZM23.8212 21.0524C23.9344 21.1386 24.0639 21.2012 24.2018 21.2365C24.3397 21.2717 24.4833 21.2789 24.6241 21.2575C24.7648 21.2362 24.8999 21.1868 25.0212 21.1122C25.1425 21.0377 25.2475 20.9395 25.3301 20.8236C25.4127 20.7077 25.4712 20.5763 25.5021 20.4373C25.5329 20.2983 25.5355 20.1546 25.5097 20.0146C25.484 19.8746 25.4303 19.7412 25.3519 19.6223C25.2736 19.5034 25.1722 19.4015 25.0537 19.3226L19.7412 15.5274C19.5614 15.3988 19.3459 15.3297 19.1249 15.3298V17.6991L23.8212 21.0545V21.0524Z" fill="#FE5558"/>
<circle cx="36.5" cy="22.5" r="7.5" fill="#E8F0F4"/>
</g>
<g clip-path="url(#clip1_277_718)">
<path d="M36.4999 30.4163C40.8722 30.4163 44.4166 26.8719 44.4166 22.4997C44.4166 18.1274 40.8722 14.583 36.4999 14.583C32.1277 14.583 28.5833 18.1274 28.5833 22.4997C28.5833 26.8719 32.1277 30.4163 36.4999 30.4163Z" stroke="#FE5558" stroke-width="1.5"/>
<circle cx="36.5" cy="22.5" r="9" stroke="#E8F0F4"/>
</g>
<defs>
<clipPath id="clip0_277_718">
<rect width="34" height="34" fill="white"/>
</clipPath>
<clipPath id="clip1_277_718">
<rect width="19" height="19" fill="white" transform="translate(27 13)"/>
</clipPath>
</defs>
</svg>
