<svg width="34" height="36" viewBox="0 0 34 36" fill="none" xmlns="http://www.w3.org/2000/svg">
<path d="M6.12328 29.7514L1.91608 34.4391C1.81691 34.5521 1.69554 34.6427 1.55982 34.705C1.4241 34.7673 1.27705 34.8 1.12817 34.8008H1.49767C1.64655 34.8 1.7936 34.7673 1.92931 34.705C2.06503 34.6427 2.1864 34.5521 2.28557 34.4391L6.49277 29.7514C6.53106 29.7077 6.5779 29.6726 6.63029 29.6483C6.68269 29.6241 6.73949 29.6112 6.79704 29.6106H6.42754C6.36999 29.6112 6.31319 29.6241 6.2608 29.6483C6.2084 29.6726 6.16157 29.7077 6.12328 29.7514Z" fill="#FE5558"/>
<path d="M7.26543 26.6371V19.3845C7.2645 19.2598 7.30915 19.1392 7.3907 19.0462L19.6012 5.37055C20.5564 4.37871 21.7861 3.83924 23.0768 3.83924H22.7073C21.4166 3.83924 20.1869 4.37871 19.2317 5.37055L7.02123 19.0462C6.93967 19.1392 6.89501 19.2598 6.89593 19.3845V26.6371C6.89593 26.902 7.08859 27.1165 7.32634 27.1165H7.69584C7.45805 27.1165 7.26543 26.902 7.26543 26.6371Z" fill="#FE5558"/>
<path d="M24.3174 9.3693C24.3202 9.04203 24.2026 8.72555 23.9876 8.48223C23.8877 8.36756 23.7653 8.27559 23.6282 8.21233C23.4911 8.14907 23.3425 8.11594 23.192 8.11509H22.8225C22.973 8.11594 23.1216 8.14907 23.2587 8.21233C23.3958 8.27559 23.5182 8.36756 23.6181 8.48223C23.8306 8.72702 23.9479 9.04245 23.9479 9.36915C23.9479 9.69585 23.8306 10.0113 23.6181 10.2561L12.7632 22.352C12.664 22.465 12.5426 22.5555 12.4069 22.6178C12.2712 22.68 12.1241 22.7126 11.9753 22.7135H12.3448C12.4936 22.7126 12.6406 22.68 12.7763 22.6178C12.9121 22.5555 13.0334 22.465 13.1326 22.352L23.9876 10.2562C24.2026 10.013 24.3203 9.69653 24.3174 9.3693Z" fill="#FE5558"/>
<path d="M23.1916 1.2002H22.8221C24.7802 1.2002 26.6201 2.05068 28.0167 3.611C29.3971 5.15305 30.1561 7.20161 30.1535 9.37985C30.1508 11.5581 29.3876 13.6047 28.0043 15.1418L15.2514 29.2494C15.1529 29.3614 15.0325 29.4514 14.898 29.5136C14.7635 29.5758 14.6177 29.6089 14.47 29.6107H14.8395C14.9872 29.6089 15.1329 29.5758 15.2675 29.5136C15.402 29.4514 15.5223 29.3614 15.6209 29.2494L28.3738 15.1418C29.7569 13.6047 30.5205 11.5579 30.523 9.37985C30.5254 7.20183 29.7666 5.15305 28.3862 3.611C26.9896 2.05068 25.1497 1.2002 23.1916 1.2002Z" fill="#FE5558"/>
<path d="M22.8224 8.11522C22.9729 8.11608 23.1216 8.14923 23.2586 8.21249C23.3957 8.27575 23.5182 8.3677 23.618 8.48236C23.8305 8.72715 23.9478 9.04259 23.9478 9.36929C23.9478 9.69599 23.8305 10.0114 23.618 10.2562L12.7632 22.352C12.664 22.4649 12.5426 22.5555 12.4069 22.6177C12.2711 22.68 12.1241 22.7126 11.9753 22.7134C11.6745 22.7134 11.3921 22.5826 11.1716 22.335C10.737 21.8462 10.7398 21.0554 11.1792 20.5695L22.0265 8.48236C22.1264 8.36771 22.2489 8.27576 22.3861 8.2125C22.5232 8.14925 22.6719 8.1161 22.8224 8.11522Z" fill="#FE5558"/>
<path d="M28.0167 3.61104C29.3971 5.15305 30.1561 7.20161 30.1535 9.37985C30.1508 11.5581 29.3875 13.6047 28.0043 15.1418L15.2514 29.2494C15.1529 29.3614 15.0325 29.4514 14.898 29.5136C14.7635 29.5758 14.6177 29.6089 14.47 29.6107H6.42756C6.37001 29.6113 6.31322 29.6241 6.26083 29.6484C6.20844 29.6726 6.16159 29.7077 6.12329 29.7514L1.91609 34.4392C1.81691 34.5522 1.69555 34.6428 1.55983 34.7051C1.42412 34.7674 1.27706 34.8 1.12819 34.8008C0.827414 34.8008 0.545375 34.6703 0.324577 34.422C0.11406 34.1775 -0.00137217 33.8631 1.23109e-05 33.538C0.00139679 33.2129 0.119518 32.8995 0.332109 32.6569L4.53157 27.9776C4.61341 27.8843 4.6583 27.7634 4.65754 27.6383V18.6782C4.65622 18.3565 4.77182 18.0457 4.9821 17.8056L17.6542 3.58101C19.0359 2.04541 20.8711 1.2002 22.8221 1.2002C24.7803 1.2002 26.6201 2.05068 28.0167 3.61104ZM26.4221 13.3572C28.2314 11.1937 28.2314 7.80408 26.4221 5.64013C25.4655 4.49583 24.1113 3.83914 22.7073 3.83914C21.4166 3.83914 20.1869 4.37866 19.2317 5.37046L7.02123 19.0462C6.93965 19.1392 6.89499 19.2598 6.89594 19.3844V26.637C6.89594 26.9019 7.08859 27.1164 7.32635 27.1164H13.8347C13.892 27.1159 13.9487 27.1033 14.001 27.0793C14.0533 27.0553 14.1001 27.0204 14.1384 26.977L26.4221 13.3572Z" fill="#FE5558"/>
</svg>
