<svg width="315" height="347" viewBox="0 0 315 347" fill="none" xmlns="http://www.w3.org/2000/svg">
<rect width="315" height="347" rx="9" fill="#E8F0F4"/>
<path d="M32.1631 30.7588C31.5479 30.7588 30.9971 30.8701 30.5107 31.0928C30.0303 31.3154 29.623 31.6377 29.2891 32.0596C28.9551 32.4756 28.7002 32.9824 28.5244 33.5801C28.3486 34.1719 28.2607 34.8398 28.2607 35.584C28.2607 36.5801 28.4014 37.4385 28.6826 38.1592C28.9639 38.874 29.3916 39.4248 29.9658 39.8115C30.54 40.1924 31.2666 40.3828 32.1455 40.3828C32.6904 40.3828 33.2207 40.3301 33.7363 40.2246C34.252 40.1191 34.7852 39.9756 35.3359 39.7939V41.5869C34.8145 41.792 34.2871 41.9414 33.7539 42.0352C33.2207 42.1289 32.6055 42.1758 31.9082 42.1758C30.5957 42.1758 29.5059 41.9033 28.6387 41.3584C27.7773 40.8135 27.1328 40.0459 26.7051 39.0557C26.2832 38.0654 26.0723 36.9053 26.0723 35.5752C26.0723 34.6025 26.207 33.7119 26.4766 32.9033C26.7461 32.0947 27.1387 31.3975 27.6543 30.8115C28.1699 30.2197 28.8057 29.7656 29.5615 29.4492C30.3232 29.127 31.1934 28.9658 32.1719 28.9658C32.8164 28.9658 33.4492 29.0391 34.0703 29.1855C34.6973 29.3262 35.2773 29.5283 35.8105 29.792L35.0723 31.5322C34.627 31.3213 34.1611 31.1396 33.6748 30.9873C33.1885 30.835 32.6846 30.7588 32.1631 30.7588ZM39.9502 28.3242V31.7607C39.9502 32.1182 39.9385 32.4668 39.915 32.8066C39.8975 33.1465 39.877 33.4102 39.8535 33.5977H39.9678C40.1729 33.2578 40.4248 32.9795 40.7236 32.7627C41.0225 32.54 41.3564 32.373 41.7256 32.2617C42.1006 32.1504 42.499 32.0947 42.9209 32.0947C43.665 32.0947 44.2979 32.2207 44.8193 32.4727C45.3408 32.7188 45.7393 33.1025 46.0146 33.624C46.2959 34.1455 46.4365 34.8223 46.4365 35.6543V42H44.3711V36.041C44.3711 35.2852 44.2158 34.7197 43.9053 34.3447C43.5947 33.9639 43.1143 33.7734 42.4639 33.7734C41.8369 33.7734 41.3389 33.9053 40.9697 34.1689C40.6064 34.4268 40.3457 34.8105 40.1875 35.3203C40.0293 35.8242 39.9502 36.4395 39.9502 37.166V42H37.8848V28.3242H39.9502ZM53.1426 32.0859C54.373 32.0859 55.3018 32.3584 55.9287 32.9033C56.5615 33.4482 56.8779 34.2979 56.8779 35.4521V42H55.4102L55.0146 40.6201H54.9443C54.6689 40.9717 54.3848 41.2617 54.0918 41.4902C53.7988 41.7188 53.459 41.8887 53.0723 42C52.6914 42.1172 52.2256 42.1758 51.6748 42.1758C51.0947 42.1758 50.5762 42.0703 50.1191 41.8594C49.6621 41.6426 49.3018 41.3145 49.0381 40.875C48.7744 40.4355 48.6426 39.8789 48.6426 39.2051C48.6426 38.2031 49.0146 37.4502 49.7588 36.9463C50.5088 36.4424 51.6396 36.1641 53.1514 36.1113L54.8389 36.0498V35.54C54.8389 34.8662 54.6807 34.3857 54.3643 34.0986C54.0537 33.8115 53.6143 33.668 53.0459 33.668C52.5596 33.668 52.0879 33.7383 51.6309 33.8789C51.1738 34.0195 50.7285 34.1924 50.2949 34.3975L49.627 32.9385C50.1016 32.6865 50.6406 32.4814 51.2441 32.3232C51.8535 32.165 52.4863 32.0859 53.1426 32.0859ZM54.8301 37.3506L53.5732 37.3945C52.542 37.4297 51.8184 37.6055 51.4023 37.9219C50.9863 38.2383 50.7783 38.6719 50.7783 39.2227C50.7783 39.7031 50.9219 40.0547 51.209 40.2773C51.4961 40.4941 51.874 40.6025 52.3428 40.6025C53.0576 40.6025 53.6494 40.4004 54.1182 39.9961C54.5928 39.5859 54.8301 38.9854 54.8301 38.1943V37.3506ZM64.7002 32.0859C64.8643 32.0859 65.043 32.0947 65.2363 32.1123C65.4297 32.1299 65.5967 32.1533 65.7373 32.1826L65.5439 34.1162C65.4209 34.0811 65.2686 34.0547 65.0869 34.0371C64.9111 34.0195 64.7529 34.0107 64.6123 34.0107C64.2432 34.0107 63.8916 34.0723 63.5576 34.1953C63.2236 34.3125 62.9277 34.4941 62.6699 34.7402C62.4121 34.9805 62.21 35.2822 62.0635 35.6455C61.917 36.0088 61.8438 36.4307 61.8438 36.9111V42H59.7695V32.2705H61.3867L61.668 33.9844H61.7646C61.958 33.6387 62.1982 33.3223 62.4854 33.0352C62.7725 32.748 63.1006 32.5195 63.4697 32.3496C63.8447 32.1738 64.2549 32.0859 64.7002 32.0859ZM71.1602 40.5059C71.4297 40.5059 71.6963 40.4824 71.96 40.4355C72.2236 40.3828 72.4639 40.3213 72.6807 40.251V41.8154C72.4521 41.915 72.1562 42 71.793 42.0703C71.4297 42.1406 71.0518 42.1758 70.6592 42.1758C70.1084 42.1758 69.6133 42.085 69.1738 41.9033C68.7344 41.7158 68.3857 41.3965 68.1279 40.9453C67.8701 40.4941 67.7412 39.8701 67.7412 39.0732V33.8438H66.4141V32.9209L67.8379 32.1914L68.5146 30.1084H69.8154V32.2705H72.6016V33.8438H69.8154V39.0469C69.8154 39.5391 69.9385 39.9053 70.1846 40.1455C70.4307 40.3857 70.7559 40.5059 71.1602 40.5059Z" fill="black"/>
<path d="M34.5801 65H33.335V59.9536H27.71V65H26.4648V54.292H27.71V58.855H33.335V54.292H34.5801V65ZM40.4321 56.8262C41.1157 56.8262 41.7017 56.9775 42.1899 57.2803C42.6782 57.583 43.0518 58.0078 43.3105 58.5547C43.5693 59.0967 43.6987 59.7314 43.6987 60.459V61.2134H38.1543C38.1689 62.1558 38.4033 62.8735 38.8574 63.3667C39.3115 63.8599 39.9512 64.1064 40.7764 64.1064C41.2842 64.1064 41.7334 64.0601 42.124 63.9673C42.5146 63.8745 42.9199 63.7378 43.3398 63.5571V64.6265C42.9346 64.8071 42.5317 64.939 42.1313 65.022C41.7358 65.105 41.2671 65.1465 40.7251 65.1465C39.9536 65.1465 39.2798 64.9902 38.7036 64.6777C38.1323 64.3604 37.688 63.8965 37.3706 63.2861C37.0532 62.6758 36.8945 61.9287 36.8945 61.0449C36.8945 60.1807 37.0386 59.4336 37.3267 58.8037C37.6196 58.1689 38.0298 57.6807 38.5571 57.3389C39.0894 56.9971 39.7144 56.8262 40.4321 56.8262ZM40.4175 57.8223C39.7681 57.8223 39.2505 58.0347 38.8647 58.4595C38.479 58.8843 38.2495 59.4775 38.1763 60.2393H42.4243C42.4194 59.7607 42.3438 59.3408 42.1973 58.9795C42.0557 58.6133 41.8384 58.3301 41.5454 58.1299C41.2524 57.9248 40.8765 57.8223 40.4175 57.8223ZM48.7671 56.8408C49.7241 56.8408 50.4346 57.0557 50.8984 57.4854C51.3623 57.915 51.5942 58.6011 51.5942 59.5435V65H50.708L50.4736 63.8135H50.415C50.1904 64.1064 49.9561 64.353 49.7119 64.5532C49.4678 64.7485 49.1846 64.8975 48.8623 65C48.5449 65.0977 48.1543 65.1465 47.6904 65.1465C47.2021 65.1465 46.7676 65.061 46.3867 64.8901C46.0107 64.7192 45.7129 64.4604 45.4932 64.1138C45.2783 63.7671 45.1709 63.3276 45.1709 62.7954C45.1709 61.9946 45.4883 61.3794 46.123 60.9497C46.7578 60.52 47.7246 60.2856 49.0234 60.2466L50.4077 60.188V59.6973C50.4077 59.0039 50.2588 58.5181 49.9609 58.2397C49.6631 57.9614 49.2432 57.8223 48.7012 57.8223C48.2812 57.8223 47.8809 57.8833 47.5 58.0054C47.1191 58.1274 46.7578 58.2715 46.416 58.4375L46.0425 57.5146C46.4038 57.3291 46.8188 57.1704 47.2876 57.0386C47.7563 56.9067 48.2495 56.8408 48.7671 56.8408ZM50.3931 61.0449L49.1699 61.0962C48.1689 61.1353 47.4634 61.2988 47.0532 61.5869C46.6431 61.875 46.438 62.2827 46.438 62.8101C46.438 63.269 46.5771 63.6084 46.8555 63.8281C47.1338 64.0479 47.5024 64.1577 47.9614 64.1577C48.6743 64.1577 49.2578 63.96 49.7119 63.5645C50.166 63.1689 50.3931 62.5757 50.3931 61.7847V61.0449ZM57.7466 56.8262C57.9077 56.8262 58.0762 56.8359 58.252 56.8555C58.4277 56.8701 58.584 56.8921 58.7207 56.9214L58.5669 58.0493C58.4351 58.0151 58.2886 57.9883 58.1274 57.9688C57.9663 57.9492 57.8149 57.9395 57.6733 57.9395C57.3511 57.9395 57.0459 58.0054 56.7578 58.1372C56.4746 58.2642 56.2256 58.4497 56.0107 58.6938C55.7959 58.9331 55.6274 59.2236 55.5054 59.5654C55.3833 59.9023 55.3223 60.2783 55.3223 60.6934V65H54.0991V56.9727H55.1099L55.2417 58.4521H55.293C55.459 58.1543 55.6592 57.8833 55.8936 57.6392C56.1279 57.3901 56.3989 57.1924 56.7065 57.0459C57.019 56.8994 57.3657 56.8262 57.7466 56.8262ZM62.8296 64.1504C63.0298 64.1504 63.2349 64.1333 63.4448 64.0991C63.6548 64.0649 63.8257 64.0234 63.9575 63.9746V64.9194C63.8159 64.9829 63.6182 65.0366 63.3643 65.0806C63.1152 65.1245 62.8711 65.1465 62.6318 65.1465C62.207 65.1465 61.8213 65.0732 61.4746 64.9268C61.1279 64.7754 60.8496 64.5215 60.6396 64.165C60.4346 63.8086 60.332 63.3154 60.332 62.6855V57.9248H59.1895V57.3315L60.3394 56.8555L60.8228 55.1123H61.5552V56.9727H63.9062V57.9248H61.5552V62.6489C61.5552 63.1519 61.6699 63.5278 61.8994 63.7769C62.1338 64.0259 62.4438 64.1504 62.8296 64.1504ZM72.5562 54.292C73.4351 54.292 74.1602 54.4019 74.7314 54.6216C75.3076 54.8364 75.7373 55.166 76.0205 55.6104C76.3037 56.0547 76.4453 56.6211 76.4453 57.3096C76.4453 57.876 76.3428 58.3496 76.1377 58.7305C75.9326 59.1064 75.6641 59.4116 75.332 59.646C75 59.8804 74.646 60.061 74.27 60.188L77.207 65H75.7568L73.1348 60.5322H70.9082V65H69.6631V54.292H72.5562ZM72.4829 55.3687H70.9082V59.4775H72.6074C73.4814 59.4775 74.1235 59.2993 74.5337 58.9429C74.9487 58.5864 75.1562 58.0615 75.1562 57.3682C75.1562 56.6406 74.9365 56.1255 74.4971 55.8228C74.0625 55.52 73.3911 55.3687 72.4829 55.3687ZM81.7407 56.8408C82.6978 56.8408 83.4082 57.0557 83.8721 57.4854C84.3359 57.915 84.5679 58.6011 84.5679 59.5435V65H83.6816L83.4473 63.8135H83.3887C83.1641 64.1064 82.9297 64.353 82.6855 64.5532C82.4414 64.7485 82.1582 64.8975 81.8359 65C81.5186 65.0977 81.1279 65.1465 80.6641 65.1465C80.1758 65.1465 79.7412 65.061 79.3604 64.8901C78.9844 64.7192 78.6865 64.4604 78.4668 64.1138C78.252 63.7671 78.1445 63.3276 78.1445 62.7954C78.1445 61.9946 78.4619 61.3794 79.0967 60.9497C79.7314 60.52 80.6982 60.2856 81.9971 60.2466L83.3813 60.188V59.6973C83.3813 59.0039 83.2324 58.5181 82.9346 58.2397C82.6367 57.9614 82.2168 57.8223 81.6748 57.8223C81.2549 57.8223 80.8545 57.8833 80.4736 58.0054C80.0928 58.1274 79.7314 58.2715 79.3896 58.4375L79.0161 57.5146C79.3774 57.3291 79.7925 57.1704 80.2612 57.0386C80.73 56.9067 81.2231 56.8408 81.7407 56.8408ZM83.3667 61.0449L82.1436 61.0962C81.1426 61.1353 80.437 61.2988 80.0269 61.5869C79.6167 61.875 79.4116 62.2827 79.4116 62.8101C79.4116 63.269 79.5508 63.6084 79.8291 63.8281C80.1074 64.0479 80.4761 64.1577 80.9351 64.1577C81.6479 64.1577 82.2314 63.96 82.6855 63.5645C83.1396 63.1689 83.3667 62.5757 83.3667 61.7847V61.0449ZM89.6655 64.1504C89.8657 64.1504 90.0708 64.1333 90.2808 64.0991C90.4907 64.0649 90.6616 64.0234 90.7935 63.9746V64.9194C90.6519 64.9829 90.4541 65.0366 90.2002 65.0806C89.9512 65.1245 89.707 65.1465 89.4678 65.1465C89.043 65.1465 88.6572 65.0732 88.3105 64.9268C87.9639 64.7754 87.6855 64.5215 87.4756 64.165C87.2705 63.8086 87.168 63.3154 87.168 62.6855V57.9248H86.0254V57.3315L87.1753 56.8555L87.6587 55.1123H88.3911V56.9727H90.7422V57.9248H88.3911V62.6489C88.3911 63.1519 88.5059 63.5278 88.7354 63.7769C88.9697 64.0259 89.2798 64.1504 89.6655 64.1504ZM95.5103 56.8262C96.1938 56.8262 96.7798 56.9775 97.2681 57.2803C97.7563 57.583 98.1299 58.0078 98.3887 58.5547C98.6475 59.0967 98.7769 59.7314 98.7769 60.459V61.2134H93.2324C93.2471 62.1558 93.4814 62.8735 93.9355 63.3667C94.3896 63.8599 95.0293 64.1064 95.8545 64.1064C96.3623 64.1064 96.8115 64.0601 97.2021 63.9673C97.5928 63.8745 97.998 63.7378 98.418 63.5571V64.6265C98.0127 64.8071 97.6099 64.939 97.2095 65.022C96.814 65.105 96.3452 65.1465 95.8032 65.1465C95.0317 65.1465 94.3579 64.9902 93.7817 64.6777C93.2104 64.3604 92.7661 63.8965 92.4487 63.2861C92.1313 62.6758 91.9727 61.9287 91.9727 61.0449C91.9727 60.1807 92.1167 59.4336 92.4048 58.8037C92.6978 58.1689 93.1079 57.6807 93.6353 57.3389C94.1675 56.9971 94.7925 56.8262 95.5103 56.8262ZM95.4956 57.8223C94.8462 57.8223 94.3286 58.0347 93.9429 58.4595C93.5571 58.8843 93.3276 59.4775 93.2544 60.2393H97.5024C97.4976 59.7607 97.4219 59.3408 97.2754 58.9795C97.1338 58.6133 96.9165 58.3301 96.6235 58.1299C96.3306 57.9248 95.9546 57.8223 95.4956 57.8223ZM104.058 60.8911C104.058 60.0659 104.136 59.2627 104.292 58.4814C104.453 57.7002 104.697 56.9556 105.024 56.2476C105.352 55.5396 105.764 54.8877 106.262 54.292H107.427C106.719 55.2197 106.187 56.25 105.83 57.3828C105.474 58.5156 105.295 59.6802 105.295 60.8765C105.295 61.6577 105.374 62.4292 105.53 63.1909C105.691 63.9478 105.928 64.6777 106.24 65.3809C106.558 66.084 106.948 66.748 107.412 67.373H106.262C105.764 66.7871 105.352 66.1475 105.024 65.4541C104.697 64.7656 104.453 64.0356 104.292 63.2642C104.136 62.4927 104.058 61.7017 104.058 60.8911ZM110.378 53.6035V56.4526C110.378 56.7798 110.369 57.0972 110.349 57.4048C110.334 57.7124 110.322 57.9517 110.312 58.1226H110.378C110.598 57.7612 110.916 57.4561 111.331 57.207C111.746 56.958 112.275 56.8335 112.92 56.8335C113.926 56.8335 114.727 57.1826 115.322 57.8809C115.923 58.5742 116.223 59.6069 116.223 60.979C116.223 61.8823 116.086 62.644 115.813 63.2642C115.54 63.8843 115.154 64.353 114.656 64.6704C114.158 64.9878 113.569 65.1465 112.891 65.1465C112.256 65.1465 111.733 65.0293 111.323 64.7949C110.918 64.5557 110.605 64.2651 110.386 63.9233H110.291L110.042 65H109.163V53.6035H110.378ZM112.722 57.8516C112.141 57.8516 111.68 57.9663 111.338 58.1958C110.996 58.4204 110.75 58.7622 110.598 59.2212C110.452 59.6753 110.378 60.2515 110.378 60.9497V61.0156C110.378 62.0264 110.547 62.8003 110.884 63.3374C111.221 63.8696 111.833 64.1357 112.722 64.1357C113.469 64.1357 114.028 63.8623 114.399 63.3154C114.775 62.7686 114.963 61.9873 114.963 60.9717C114.963 59.9365 114.778 59.1577 114.407 58.6353C114.041 58.1128 113.479 57.8516 112.722 57.8516ZM122.119 56.8262C123.12 56.8262 123.918 57.1704 124.514 57.8589C125.11 58.5474 125.408 59.5825 125.408 60.9644C125.408 61.8774 125.271 62.644 124.998 63.2642C124.724 63.8843 124.338 64.353 123.84 64.6704C123.347 64.9878 122.764 65.1465 122.09 65.1465C121.665 65.1465 121.292 65.0903 120.969 64.978C120.647 64.8657 120.371 64.7144 120.142 64.5239C119.912 64.3335 119.722 64.126 119.57 63.9014H119.482C119.497 64.0918 119.514 64.3213 119.534 64.5898C119.558 64.8584 119.57 65.0928 119.57 65.293V68.5889H118.347V56.9727H119.351L119.512 58.1592H119.57C119.727 57.915 119.917 57.6929 120.142 57.4927C120.366 57.2876 120.64 57.1265 120.962 57.0093C121.289 56.8872 121.675 56.8262 122.119 56.8262ZM121.907 57.8516C121.35 57.8516 120.901 57.959 120.559 58.1738C120.222 58.3887 119.976 58.7109 119.819 59.1406C119.663 59.5654 119.58 60.1001 119.57 60.7446V60.979C119.57 61.6577 119.644 62.2314 119.79 62.7002C119.941 63.1689 120.188 63.5254 120.53 63.7695C120.876 64.0137 121.34 64.1357 121.921 64.1357C122.419 64.1357 122.834 64.0015 123.167 63.7329C123.499 63.4644 123.745 63.0908 123.906 62.6123C124.072 62.1289 124.155 61.5747 124.155 60.9497C124.155 60.0024 123.97 59.2505 123.599 58.6938C123.232 58.1323 122.668 57.8516 121.907 57.8516ZM136.248 56.8262C137.131 56.8262 137.798 57.0581 138.247 57.522C138.696 57.981 138.921 58.7207 138.921 59.7412V65H137.72V59.7998C137.72 59.1504 137.578 58.6646 137.295 58.3423C137.017 58.0151 136.602 57.8516 136.05 57.8516C135.273 57.8516 134.709 58.0762 134.358 58.5254C134.006 58.9746 133.831 59.6362 133.831 60.5103V65H132.622V59.7998C132.622 59.3652 132.559 59.0039 132.432 58.7158C132.31 58.4277 132.124 58.2129 131.875 58.0713C131.631 57.9248 131.321 57.8516 130.945 57.8516C130.413 57.8516 129.985 57.9614 129.663 58.1812C129.341 58.4009 129.106 58.728 128.96 59.1626C128.818 59.5923 128.748 60.1221 128.748 60.752V65H127.532V56.9727H128.513L128.696 58.1079H128.762C128.923 57.8296 129.126 57.5952 129.37 57.4048C129.614 57.2144 129.888 57.0703 130.19 56.9727C130.493 56.875 130.815 56.8262 131.157 56.8262C131.768 56.8262 132.278 56.9409 132.688 57.1704C133.103 57.395 133.403 57.7393 133.589 58.2031H133.655C133.918 57.7393 134.28 57.395 134.739 57.1704C135.198 56.9409 135.701 56.8262 136.248 56.8262ZM143.96 60.8765C143.96 61.6919 143.879 62.4878 143.718 63.2642C143.562 64.0356 143.32 64.7681 142.993 65.4614C142.671 66.1548 142.258 66.792 141.755 67.373H140.605C141.074 66.7529 141.465 66.0889 141.777 65.3809C142.095 64.6729 142.332 63.9404 142.488 63.1836C142.649 62.4219 142.729 61.6504 142.729 60.8691C142.729 60.0732 142.649 59.2896 142.488 58.5181C142.327 57.7466 142.087 57.0044 141.77 56.2915C141.458 55.5786 141.064 54.9121 140.591 54.292H141.755C142.258 54.8926 142.671 55.5469 142.993 56.2549C143.32 56.958 143.562 57.7002 143.718 58.4814C143.879 59.2578 143.96 60.0562 143.96 60.8765Z" fill="#576367"/>
<path d="M278 244.5C278 204.422 258.754 168.84 229 146.491C208.526 131.113 183.077 122 155.5 122C87.8451 122 33 176.845 33 244.5" stroke="#C5C5C5" stroke-width="20"/>
<path d="M33 244.5C33 176.845 87.8451 122 155.5 122C178.539 122 200.092 128.36 218.5 139.42" stroke="url(#paint0_radial_185_1284)" stroke-width="20"/>
<path d="M130.717 225L144.545 194.726H126.385V188.178H152.806V193.064L138.878 225H130.717ZM169.278 187.699C171.393 187.699 173.341 188.026 175.121 188.681C176.918 189.336 178.353 190.327 179.428 191.653C180.502 192.963 181.04 194.608 181.04 196.59C181.04 198.067 180.746 199.36 180.158 200.468C179.587 201.577 178.806 202.551 177.816 203.39C176.825 204.213 175.7 204.935 174.441 205.556C175.751 206.245 176.993 207.051 178.168 207.974C179.344 208.881 180.301 209.947 181.04 211.173C181.795 212.398 182.173 213.826 182.173 215.454C182.173 217.503 181.627 219.283 180.536 220.794C179.445 222.288 177.933 223.447 176.002 224.27C174.071 225.092 171.83 225.504 169.278 225.504C166.524 225.504 164.182 225.109 162.251 224.32C160.32 223.531 158.85 222.406 157.843 220.945C156.836 219.467 156.332 217.704 156.332 215.656C156.332 213.977 156.642 212.516 157.264 211.273C157.902 210.031 158.758 208.965 159.833 208.075C160.907 207.168 162.091 206.396 163.384 205.758C162.293 205.069 161.294 204.288 160.387 203.415C159.497 202.542 158.783 201.543 158.246 200.418C157.725 199.293 157.465 198 157.465 196.539C157.465 194.592 158.011 192.963 159.102 191.653C160.211 190.344 161.663 189.361 163.46 188.706C165.256 188.035 167.196 187.699 169.278 187.699ZM163.535 215.203C163.535 216.529 164.005 217.629 164.946 218.502C165.903 219.358 167.313 219.786 169.177 219.786C171.108 219.786 172.552 219.375 173.509 218.552C174.466 217.713 174.945 216.613 174.945 215.253C174.945 214.313 174.668 213.49 174.113 212.785C173.576 212.079 172.896 211.45 172.073 210.896C171.251 210.325 170.419 209.796 169.58 209.309L168.9 208.956C167.825 209.443 166.885 209.989 166.079 210.593C165.29 211.198 164.669 211.878 164.215 212.633C163.762 213.389 163.535 214.245 163.535 215.203ZM169.227 193.391C167.951 193.391 166.893 193.719 166.054 194.373C165.214 195.028 164.794 195.952 164.794 197.144C164.794 197.983 164.996 198.722 165.399 199.36C165.819 199.982 166.364 200.527 167.036 200.997C167.724 201.468 168.472 201.904 169.278 202.307C170.05 201.938 170.772 201.526 171.444 201.073C172.115 200.62 172.661 200.074 173.081 199.436C173.501 198.798 173.71 198.034 173.71 197.144C173.71 195.952 173.282 195.028 172.426 194.373C171.586 193.719 170.52 193.391 169.227 193.391Z" fill="black"/>
<path d="M138.264 254.041H143.18V260.466C142.53 260.681 141.855 260.853 141.154 260.983C140.453 261.107 139.659 261.17 138.772 261.17C137.54 261.17 136.495 260.927 135.636 260.441C134.777 259.955 134.125 259.237 133.678 258.288C133.232 257.338 133.009 256.172 133.009 254.787C133.009 253.488 133.257 252.363 133.755 251.414C134.257 250.465 134.989 249.73 135.95 249.21C136.916 248.69 138.094 248.43 139.484 248.43C140.14 248.43 140.787 248.501 141.425 248.642C142.064 248.783 142.643 248.967 143.163 249.193L142.29 251.295C141.911 251.103 141.479 250.942 140.993 250.812C140.507 250.682 139.998 250.617 139.467 250.617C138.704 250.617 138.04 250.792 137.475 251.143C136.916 251.493 136.481 251.985 136.17 252.617C135.865 253.245 135.712 253.985 135.712 254.838C135.712 255.646 135.823 256.364 136.043 256.991C136.263 257.612 136.611 258.101 137.086 258.457C137.56 258.808 138.179 258.983 138.942 258.983C139.315 258.983 139.628 258.966 139.883 258.932C140.142 258.892 140.385 258.853 140.611 258.813V256.228H138.264V254.041ZM154.546 256.245C154.546 257.036 154.438 257.737 154.224 258.347C154.015 258.957 153.707 259.474 153.3 259.898C152.899 260.316 152.413 260.633 151.842 260.847C151.277 261.062 150.638 261.17 149.926 261.17C149.26 261.17 148.647 261.062 148.087 260.847C147.533 260.633 147.05 260.316 146.638 259.898C146.231 259.474 145.915 258.957 145.688 258.347C145.468 257.737 145.358 257.036 145.358 256.245C145.358 255.194 145.544 254.304 145.917 253.575C146.29 252.846 146.821 252.292 147.511 251.914C148.2 251.535 149.022 251.346 149.977 251.346C150.864 251.346 151.65 251.535 152.334 251.914C153.023 252.292 153.563 252.846 153.952 253.575C154.348 254.304 154.546 255.194 154.546 256.245ZM147.994 256.245C147.994 256.867 148.062 257.389 148.197 257.813C148.333 258.237 148.545 258.556 148.833 258.771C149.121 258.986 149.497 259.093 149.96 259.093C150.418 259.093 150.788 258.986 151.071 258.771C151.359 258.556 151.568 258.237 151.698 257.813C151.833 257.389 151.901 256.867 151.901 256.245C151.901 255.618 151.833 255.098 151.698 254.685C151.568 254.267 151.359 253.954 151.071 253.745C150.782 253.536 150.407 253.431 149.943 253.431C149.26 253.431 148.762 253.666 148.452 254.135C148.146 254.604 147.994 255.307 147.994 256.245ZM165.293 256.245C165.293 257.036 165.186 257.737 164.971 258.347C164.762 258.957 164.454 259.474 164.047 259.898C163.646 260.316 163.16 260.633 162.589 260.847C162.024 261.062 161.386 261.17 160.674 261.17C160.007 261.17 159.394 261.062 158.835 260.847C158.281 260.633 157.798 260.316 157.385 259.898C156.978 259.474 156.662 258.957 156.436 258.347C156.216 257.737 156.105 257.036 156.105 256.245C156.105 255.194 156.292 254.304 156.665 253.575C157.038 252.846 157.569 252.292 158.258 251.914C158.948 251.535 159.77 251.346 160.725 251.346C161.612 251.346 162.397 251.535 163.081 251.914C163.77 252.292 164.31 252.846 164.7 253.575C165.095 254.304 165.293 255.194 165.293 256.245ZM158.741 256.245C158.741 256.867 158.809 257.389 158.945 257.813C159.08 258.237 159.292 258.556 159.58 258.771C159.869 258.986 160.244 259.093 160.708 259.093C161.165 259.093 161.536 258.986 161.818 258.771C162.106 258.556 162.315 258.237 162.445 257.813C162.581 257.389 162.649 256.867 162.649 256.245C162.649 255.618 162.581 255.098 162.445 254.685C162.315 254.267 162.106 253.954 161.818 253.745C161.53 253.536 161.154 253.431 160.691 253.431C160.007 253.431 159.51 253.666 159.199 254.135C158.894 254.604 158.741 255.307 158.741 256.245ZM170.43 261.17C169.373 261.17 168.511 260.757 167.844 259.932C167.183 259.101 166.853 257.884 166.853 256.279C166.853 254.657 167.189 253.431 167.861 252.6C168.534 251.764 169.412 251.346 170.497 251.346C170.949 251.346 171.348 251.408 171.692 251.532C172.037 251.657 172.334 251.823 172.582 252.033C172.837 252.242 173.051 252.476 173.227 252.736H173.311C173.277 252.555 173.235 252.29 173.184 251.939C173.139 251.583 173.116 251.219 173.116 250.846V247.812H175.71V261H173.727L173.227 259.771H173.116C172.952 260.031 172.746 260.268 172.498 260.483C172.255 260.692 171.964 260.859 171.625 260.983C171.286 261.107 170.887 261.17 170.43 261.17ZM171.336 259.11C172.043 259.11 172.54 258.901 172.828 258.483C173.122 258.059 173.277 257.423 173.294 256.576V256.296C173.294 255.375 173.153 254.671 172.871 254.185C172.588 253.694 172.063 253.448 171.294 253.448C170.723 253.448 170.277 253.694 169.955 254.185C169.633 254.677 169.472 255.386 169.472 256.313C169.472 257.24 169.633 257.937 169.955 258.406C170.283 258.875 170.743 259.11 171.336 259.11Z" fill="black"/>
<path d="M26.5644 257.26C26.5644 256.743 26.6004 256.235 26.6724 255.735C26.7485 255.234 26.8765 254.766 27.0567 254.33C27.2368 253.894 27.4849 253.509 27.8011 253.177C28.1213 252.845 28.5236 252.585 29.0079 252.397C29.4922 252.205 30.0745 252.108 30.755 252.108C30.9311 252.108 31.1292 252.116 31.3493 252.132C31.5695 252.149 31.7516 252.175 31.8957 252.211V253.381C31.7396 253.337 31.5675 253.303 31.3793 253.279C31.1952 253.255 31.0111 253.243 30.827 253.243C30.0905 253.243 29.5162 253.383 29.1039 253.663C28.6917 253.94 28.3975 254.32 28.2214 254.804C28.0453 255.284 27.9432 255.835 27.9152 256.455H27.9872C28.1073 256.255 28.2574 256.077 28.4375 255.921C28.6176 255.765 28.8378 255.641 29.0979 255.549C29.3581 255.453 29.6603 255.405 30.0045 255.405C30.5168 255.405 30.9631 255.513 31.3433 255.729C31.7236 255.941 32.0157 256.249 32.2199 256.653C32.428 257.058 32.5321 257.548 32.5321 258.124C32.5321 258.745 32.414 259.279 32.1778 259.727C31.9457 260.175 31.6135 260.52 31.1812 260.76C30.753 261 30.2426 261.12 29.6503 261.12C29.214 261.12 28.8077 261.04 28.4315 260.88C28.0593 260.72 27.7331 260.48 27.4529 260.159C27.1727 259.839 26.9546 259.439 26.7985 258.959C26.6424 258.474 26.5644 257.908 26.5644 257.26ZM29.6263 259.955C30.0825 259.955 30.4488 259.807 30.7249 259.511C31.0051 259.211 31.1452 258.753 31.1452 258.136C31.1452 257.636 31.0211 257.24 30.773 256.947C30.5288 256.655 30.1606 256.509 29.6683 256.509C29.3321 256.509 29.0379 256.581 28.7857 256.725C28.5336 256.869 28.3375 257.052 28.1974 257.272C28.0613 257.492 27.9932 257.716 27.9932 257.944C27.9932 258.176 28.0273 258.41 28.0953 258.647C28.1633 258.883 28.2654 259.101 28.4015 259.301C28.5376 259.497 28.7077 259.655 28.9118 259.775C29.1159 259.895 29.3541 259.955 29.6263 259.955ZM39.5324 256.605C39.5324 257.314 39.4764 257.948 39.3643 258.508C39.2562 259.065 39.0841 259.537 38.848 259.925C38.6118 260.314 38.3036 260.61 37.9234 260.814C37.5432 261.018 37.0829 261.12 36.5425 261.12C35.8661 261.12 35.3078 260.942 34.8675 260.586C34.4272 260.226 34.101 259.709 33.8889 259.037C33.6768 258.36 33.5707 257.55 33.5707 256.605C33.5707 255.661 33.6668 254.852 33.8589 254.18C34.055 253.503 34.3712 252.985 34.8075 252.625C35.2437 252.265 35.8221 252.084 36.5425 252.084C37.223 252.084 37.7833 252.265 38.2236 252.625C38.6679 252.981 38.9961 253.497 39.2082 254.174C39.4243 254.846 39.5324 255.657 39.5324 256.605ZM34.9936 256.605C34.9936 257.346 35.0416 257.964 35.1377 258.46C35.2377 258.957 35.4018 259.329 35.63 259.577C35.8581 259.821 36.1623 259.943 36.5425 259.943C36.9228 259.943 37.227 259.821 37.4551 259.577C37.6833 259.333 37.8474 258.963 37.9474 258.466C38.0515 257.97 38.1035 257.35 38.1035 256.605C38.1035 255.869 38.0535 255.252 37.9534 254.756C37.8534 254.26 37.6893 253.888 37.4611 253.639C37.233 253.387 36.9268 253.261 36.5425 253.261C36.1583 253.261 35.8521 253.387 35.624 253.639C35.3998 253.888 35.2377 254.26 35.1377 254.756C35.0416 255.252 34.9936 255.869 34.9936 256.605Z" fill="#9F9F9F"/>
<path d="M271.701 261H270.284V255.35C270.284 255.162 270.286 254.974 270.29 254.786C270.294 254.598 270.298 254.414 270.302 254.234C270.31 254.054 270.32 253.882 270.332 253.717C270.248 253.81 270.144 253.91 270.02 254.018C269.9 254.126 269.772 254.238 269.636 254.354L268.627 255.158L267.919 254.264L270.524 252.223H271.701V261ZM280.532 256.605C280.532 257.314 280.476 257.948 280.364 258.508C280.256 259.065 280.084 259.537 279.848 259.925C279.612 260.314 279.304 260.61 278.923 260.814C278.543 261.018 278.083 261.12 277.543 261.12C276.866 261.12 276.308 260.942 275.868 260.586C275.427 260.226 275.101 259.709 274.889 259.037C274.677 258.36 274.571 257.55 274.571 256.605C274.571 255.661 274.667 254.852 274.859 254.18C275.055 253.503 275.371 252.985 275.807 252.625C276.244 252.265 276.822 252.084 277.543 252.084C278.223 252.084 278.783 252.265 279.224 252.625C279.668 252.981 279.996 253.497 280.208 254.174C280.424 254.846 280.532 255.657 280.532 256.605ZM275.994 256.605C275.994 257.346 276.042 257.964 276.138 258.46C276.238 258.957 276.402 259.329 276.63 259.577C276.858 259.821 277.162 259.943 277.543 259.943C277.923 259.943 278.227 259.821 278.455 259.577C278.683 259.333 278.847 258.963 278.947 258.466C279.051 257.97 279.104 257.35 279.104 256.605C279.104 255.869 279.053 255.252 278.953 254.756C278.853 254.26 278.689 253.888 278.461 253.639C278.233 253.387 277.927 253.261 277.543 253.261C277.158 253.261 276.852 253.387 276.624 253.639C276.4 253.888 276.238 254.26 276.138 254.756C276.042 255.252 275.994 255.869 275.994 256.605ZM287.569 256.605C287.569 257.314 287.513 257.948 287.401 258.508C287.293 259.065 287.12 259.537 286.884 259.925C286.648 260.314 286.34 260.61 285.96 260.814C285.58 261.018 285.119 261.12 284.579 261.12C283.902 261.12 283.344 260.942 282.904 260.586C282.464 260.226 282.137 259.709 281.925 259.037C281.713 258.36 281.607 257.55 281.607 256.605C281.607 255.661 281.703 254.852 281.895 254.18C282.091 253.503 282.408 252.985 282.844 252.625C283.28 252.265 283.858 252.084 284.579 252.084C285.259 252.084 285.82 252.265 286.26 252.625C286.704 252.981 287.032 253.497 287.245 254.174C287.461 254.846 287.569 255.657 287.569 256.605ZM283.03 256.605C283.03 257.346 283.078 257.964 283.174 258.46C283.274 258.957 283.438 259.329 283.666 259.577C283.894 259.821 284.199 259.943 284.579 259.943C284.959 259.943 285.263 259.821 285.491 259.577C285.72 259.333 285.884 258.963 285.984 258.466C286.088 257.97 286.14 257.35 286.14 256.605C286.14 255.869 286.09 255.252 285.99 254.756C285.89 254.26 285.726 253.888 285.497 253.639C285.269 253.387 284.963 253.261 284.579 253.261C284.195 253.261 283.888 253.387 283.66 253.639C283.436 253.888 283.274 254.26 283.174 254.756C283.078 255.252 283.03 255.869 283.03 256.605Z" fill="#9F9F9F"/>
<defs>
<radialGradient id="paint0_radial_185_1284" cx="0" cy="0" r="1" gradientUnits="userSpaceOnUse" gradientTransform="translate(37 230) rotate(-30.689) scale(143.031 216.591)">
<stop stop-color="#FAC63C"/>
<stop offset="1" stop-color="#05A2FF"/>
</radialGradient>
</defs>
</svg>
