<svg width="29" height="23" viewBox="0 0 29 23" fill="none" xmlns="http://www.w3.org/2000/svg">
<path d="M9.625 22.7906C6.94375 22.7906 4.66904 21.8565 2.80088 19.9884C0.932709 18.1202 -0.000915992 15.846 6.7435e-07 13.1656C6.7435e-07 10.6906 0.813543 8.53646 2.44063 6.70312C4.06771 4.86979 6.08438 3.81562 8.49063 3.54063L7.25313 2.30312C7.00104 2.05104 6.875 1.73571 6.875 1.35713C6.875 0.978542 7.0125 0.652208 7.2875 0.378125C7.53958 0.126042 7.86042 0 8.25 0C8.63958 0 8.96042 0.126042 9.2125 0.378125L12.7875 3.95313C12.925 4.09063 13.0226 4.23958 13.0804 4.4C13.1381 4.56042 13.1665 4.73229 13.1656 4.91563C13.1656 5.09896 13.1372 5.27083 13.0804 5.43125C13.0235 5.59167 12.9259 5.74062 12.7875 5.87812L9.2125 9.45312C8.96042 9.70521 8.64508 9.83721 8.2665 9.84912C7.88792 9.86104 7.56158 9.72904 7.2875 9.45312C7.03542 9.20104 6.90938 8.88571 6.90938 8.50713C6.90938 8.12854 7.03542 7.80221 7.2875 7.52812L8.35313 6.42813C6.74896 6.74896 5.41429 7.52812 4.34913 8.76562C3.28396 10.0031 2.75092 11.4698 2.75 13.1656C2.75 15.0677 3.42054 16.6893 4.76163 18.0304C6.10271 19.3715 7.72383 20.0415 9.625 20.0406H12.375C12.7646 20.0406 13.0914 20.1726 13.3554 20.4366C13.6194 20.7006 13.7509 21.027 13.75 21.4156C13.75 21.8052 13.618 22.132 13.354 22.396C13.09 22.66 12.7637 22.7915 12.375 22.7906H9.625ZM19.25 22.7906C18.4938 22.7906 17.8461 22.5211 17.3071 21.9821C16.7681 21.4431 16.4991 20.796 16.5 20.0406V15.9156C16.5 15.1594 16.7695 14.5117 17.3085 13.9727C17.8475 13.4337 18.4947 13.1647 19.25 13.1656H26.125C26.8813 13.1656 27.5289 13.4351 28.0679 13.9741C28.6069 14.5131 28.8759 15.1603 28.875 15.9156V20.0406C28.875 20.7969 28.6055 21.4445 28.0665 21.9835C27.5275 22.5225 26.8803 22.7915 26.125 22.7906H19.25ZM19.25 20.0406H26.125V15.9156H19.25V20.0406ZM19.25 10.4156C18.4938 10.4156 17.8461 10.1461 17.3071 9.60712C16.7681 9.06812 16.4991 8.42096 16.5 7.66562V3.54063C16.5 2.78437 16.7695 2.13675 17.3085 1.59775C17.8475 1.05875 18.4947 0.789708 19.25 0.790625H26.125C26.8813 0.790625 27.5289 1.06012 28.0679 1.59912C28.6069 2.13812 28.8759 2.78529 28.875 3.54063V7.66562C28.875 8.42188 28.6055 9.0695 28.0665 9.6085C27.5275 10.1475 26.8803 10.4165 26.125 10.4156H19.25Z" fill="white"/>
</svg>
