<svg width="63" height="63" viewBox="0 0 63 63" fill="none" xmlns="http://www.w3.org/2000/svg">
<rect width="63" height="63" rx="31.5" fill="white"/>
<path fill-rule="evenodd" clip-rule="evenodd" d="M22.6964 21.5249C20.5358 22.5373 18.9535 24.9469 18.9535 27.8198C18.9535 30.7543 20.1256 33.0169 21.803 34.9563C23.1873 36.5537 24.8621 37.8787 26.4953 39.1689C26.8833 39.4761 27.2688 39.782 27.6478 40.0879C28.3328 40.6422 28.9436 41.127 29.5336 41.481C30.1222 41.8336 30.5963 41.9952 31 41.9952C31.4037 41.9952 31.8778 41.8349 32.4664 41.481C33.0564 41.127 33.6672 40.6422 34.3522 40.0879C34.7299 39.7807 35.1167 39.4761 35.5047 39.1689C37.1379 37.8787 38.8127 36.5537 40.197 34.9563C41.8757 33.0169 43.0465 30.7543 43.0465 27.8198C43.0465 24.9482 41.4642 22.5373 39.3036 21.5249C37.2043 20.5405 34.3834 20.801 31.7033 23.6579C31.6121 23.7549 31.5029 23.832 31.3821 23.8847C31.2612 23.9374 31.1313 23.9645 31 23.9645C30.8687 23.9645 30.7388 23.9374 30.6179 23.8847C30.4971 23.832 30.3879 23.7549 30.2967 23.6579C27.6166 20.801 24.7957 20.5405 22.6964 21.5249ZM31 21.573C27.989 18.8082 24.6173 18.4208 21.8837 19.7017C19.0004 21.0574 17 24.1989 17 27.8212C17 31.3807 18.4456 34.0974 20.3431 36.2879C21.8616 38.0416 23.72 39.5095 25.3622 40.8051C25.7347 41.099 26.0954 41.3848 26.438 41.6626C27.106 42.2022 27.8223 42.7765 28.5477 43.212C29.2731 43.646 30.1014 44 31 44C31.8986 44 32.7269 43.646 33.4523 43.212C34.179 42.7765 34.894 42.2022 35.562 41.6626C35.9188 41.3743 36.2773 41.0885 36.6378 40.8051C38.2787 39.5095 40.1384 38.0403 41.6569 36.2879C43.5544 34.0974 45 31.3807 45 27.8212C45 24.1989 43.0009 21.0574 40.1163 19.7044C37.3827 18.4222 34.011 18.8095 31 21.573Z" fill="black"/>
<path d="M31 26V34.4" stroke="black" stroke-width="1.5" stroke-linecap="round"/>
<path d="M31 39.9997C31.5523 39.9997 32 39.3729 32 38.5997C32 37.8265 31.5523 37.1997 31 37.1997C30.4477 37.1997 30 37.8265 30 38.5997C30 39.3729 30.4477 39.9997 31 39.9997Z" fill="black"/>
</svg>
