<svg width="28" height="23" viewBox="0 0 28 23" fill="none" xmlns="http://www.w3.org/2000/svg">
<g id="Vector">
<path fill-rule="evenodd" clip-rule="evenodd" d="M9.10454 0C5.15503 0 2.27027 3.81584 2.27027 7.93141C2.27235 9.00658 2.44585 10.0745 2.78487 11.1004H10.1519L12.7158 6.77134L14.3178 12.0966L16.2778 9.70312H21.1892V11.1406H17.0195L13.6822 15.2152L12.2572 10.4787L11.0373 12.5379H3.36227C6.46951 19.0375 15.1351 23 15.1351 23C15.1351 23 28 16.7383 28 7.93141C28 3.81656 25.116 0 21.1657 0C18.4248 0 16.3906 1.71206 15.1351 4.14072C13.8797 1.71206 11.8455 0 9.10454 0Z" fill="black"/>
<path d="M3.36227 12.5379C3.13978 12.0721 2.9453 11.5927 2.78487 11.1004H0V12.5379H3.36227Z" fill="#1CB5BD"/>
</g>
</svg>
