<svg width="16" height="19" viewBox="0 0 16 19" fill="none" xmlns="http://www.w3.org/2000/svg">
<path d="M4.79103 11.6948L3.24012 10.2179C3.11063 10.0947 2.95754 9.99892 2.79007 9.93637C2.6226 9.87382 2.4442 9.84579 2.26562 9.85398C2.08703 9.86217 1.91195 9.90639 1.7509 9.984C1.58986 10.0616 1.44617 10.171 1.3285 10.3056C1.1117 10.553 0.994682 10.8723 1.00019 11.2012C1.00569 11.5301 1.13332 11.8453 1.35827 12.0853L6.4134 17.4774C6.73583 17.8202 7.18417 18.015 7.65463 18.015H11.597C13.6388 18.015 15 16.3135 15 14.612V7.32031" stroke="black" stroke-width="1.5" stroke-linecap="round" stroke-linejoin="round"/>
<path d="M15.0001 7.32018C15.0001 5.37538 12.4478 5.37538 12.4478 7.32018V7.80596V6.34778C12.4478 4.40298 9.8956 4.40298 9.8956 6.34778V7.80596V5.67909C9.8956 3.73429 7.34337 3.73429 7.34337 5.67909V7.80596V2.27527C7.34337 1.57 6.77167 1 6.06725 1C5.72881 1 5.40422 1.13445 5.1649 1.37377C4.92559 1.61308 4.79114 1.93767 4.79114 2.27612V11.6947" stroke="black" stroke-width="1.5" stroke-linecap="round" stroke-linejoin="round"/>
</svg>
