<svg width="25" height="25" viewBox="0 0 25 25" fill="none" xmlns="http://www.w3.org/2000/svg">
<path d="M8.75 21.25C8.91335 21.248 9.07472 21.2141 9.225 21.15C9.37648 21.0867 9.516 20.9979 9.6375 20.8875C9.69406 20.826 9.74431 20.759 9.7875 20.6875C9.83698 20.6237 9.87504 20.5518 9.9 20.475C9.94474 20.4056 9.97848 20.3297 10 20.25C10.0061 20.1668 10.0061 20.0832 10 20C9.99802 19.8367 9.96405 19.6753 9.9 19.525C9.84386 19.3699 9.75429 19.229 9.63764 19.1124C9.52099 18.9957 9.38012 18.9061 9.225 18.85C8.99872 18.7451 8.74623 18.7103 8.5 18.75L8.275 18.825C8.19821 18.85 8.12631 18.888 8.0625 18.9375C7.99099 18.9807 7.92399 19.0309 7.8625 19.0875C7.7487 19.2064 7.65949 19.3466 7.6 19.5C7.53267 19.658 7.49862 19.8282 7.5 20C7.5 20.3315 7.6317 20.6495 7.86612 20.8839C8.10054 21.1183 8.41848 21.25 8.75 21.25ZM4.1125 20.8875C4.234 20.9979 4.37352 21.0867 4.525 21.15C4.67528 21.2141 4.83665 21.248 5 21.25H5.2375C5.32029 21.2384 5.40057 21.2131 5.475 21.175C5.55466 21.1476 5.63032 21.1098 5.7 21.0625L5.8875 20.9125C5.99791 20.791 6.0867 20.6515 6.15 20.5C6.22391 20.3441 6.25826 20.1724 6.25 20C6.25614 19.9168 6.25614 19.8332 6.25 19.75C6.23632 19.6717 6.21104 19.5959 6.175 19.525C6.15004 19.4482 6.11198 19.3763 6.0625 19.3125C6.01931 19.241 5.96906 19.174 5.9125 19.1125C5.73672 18.9391 5.5135 18.8216 5.27102 18.7748C5.02853 18.7281 4.77764 18.7543 4.55 18.85C4.39656 18.9095 4.25638 18.9987 4.1375 19.1125C4.08094 19.174 4.03069 19.241 3.9875 19.3125C3.93802 19.3763 3.89996 19.4482 3.875 19.525C3.82146 19.5928 3.77925 19.6687 3.75 19.75C3.74386 19.8332 3.74386 19.9168 3.75 20C3.75198 20.1633 3.78595 20.3247 3.85 20.475C3.9133 20.6265 4.00209 20.766 4.1125 20.8875ZM21.25 0H3.75C2.75544 0 1.80161 0.395088 1.09835 1.09835C0.395088 1.80161 0 2.75544 0 3.75V21.25C0 22.2446 0.395088 23.1984 1.09835 23.9017C1.80161 24.6049 2.75544 25 3.75 25H21.25C22.2446 25 23.1984 24.6049 23.9017 23.9017C24.6049 23.1984 25 22.2446 25 21.25V3.75C25 2.75544 24.6049 1.80161 23.9017 1.09835C23.1984 0.395088 22.2446 0 21.25 0ZM22.5 21.25C22.5 21.5815 22.3683 21.8995 22.1339 22.1339C21.8995 22.3683 21.5815 22.5 21.25 22.5H3.75C3.41848 22.5 3.10054 22.3683 2.86612 22.1339C2.6317 21.8995 2.5 21.5815 2.5 21.25V17.5H22.5V21.25ZM22.5 15H2.5V10H7.5C7.66451 10.001 7.82759 9.96942 7.97988 9.90721C8.13218 9.84501 8.2707 9.75335 8.3875 9.6375L10 8.075L13.5 12.075C13.6129 12.2037 13.7511 12.3078 13.9059 12.3809C14.0607 12.454 14.2289 12.4946 14.4 12.5C14.5645 12.501 14.7276 12.4694 14.8799 12.4072C15.0322 12.345 15.1707 12.2534 15.2875 12.1375L17.3875 10H22.5V15ZM22.5 7.5H16.875C16.7105 7.49905 16.5474 7.53058 16.3951 7.59279C16.2428 7.65499 16.1043 7.74665 15.9875 7.8625L14.4375 9.425L10.9375 5.425C10.8206 5.30011 10.6793 5.20055 10.5223 5.13249C10.3653 5.06443 10.1961 5.02931 10.025 5.02931C9.85392 5.02931 9.68466 5.06443 9.5277 5.13249C9.37074 5.20055 9.22942 5.30011 9.1125 5.425L6.9875 7.5H2.5V3.75C2.5 3.41848 2.6317 3.10054 2.86612 2.86612C3.10054 2.6317 3.41848 2.5 3.75 2.5H21.25C21.5815 2.5 21.8995 2.6317 22.1339 2.86612C22.3683 3.10054 22.5 3.41848 22.5 3.75V7.5Z" fill="black"/>
</svg>
