<svg width="25" height="24" viewBox="0 0 25 24" fill="none" xmlns="http://www.w3.org/2000/svg">
<path d="M0 8.14167C0 3.91736 2.80278 0 6.64097 0C9.30417 0 11.2799 1.75694 12.5 4.25069C13.7194 1.75764 15.6958 0 18.3597 0C22.1979 0 25 3.91806 25 8.14167C24.9992 8.87867 24.9177 9.61337 24.7569 10.3326C24.0739 9.49032 23.2112 8.8113 22.2319 8.34523C21.2527 7.87917 20.1817 7.63784 19.0972 7.63889C15.0701 7.63889 11.8056 10.9035 11.8056 14.9306C11.8052 16.2992 12.1901 17.6402 12.9161 18.8004C13.6422 19.9606 14.6801 20.893 15.9111 21.491C13.9736 22.8528 12.5 23.6111 12.5 23.6111C12.5 23.6111 0 17.5722 0 8.14167Z" fill="black"/>
<path d="M20.8334 15.2777C20.8331 15.4701 20.7928 15.6604 20.7151 15.8365C20.6374 16.0126 20.524 16.1705 20.382 16.3004C20.24 16.4303 20.0725 16.5293 19.8903 16.5911C19.708 16.6529 19.5149 16.6761 19.3232 16.6593C19.1315 16.6425 18.9454 16.586 18.7766 16.4935C18.6079 16.4009 18.4602 16.2743 18.343 16.1217C18.2258 15.9691 18.1416 15.7938 18.0957 15.6069C18.0498 15.42 18.0432 15.2256 18.0764 15.036L16.3959 13.3555L17.3785 12.3735L18.975 13.9708C19.1847 13.8955 19.4094 13.8717 19.6301 13.9015C19.8509 13.9313 20.0613 14.0137 20.2435 14.1418C20.4257 14.27 20.5744 14.4401 20.6771 14.6378C20.7797 14.8355 20.8333 15.0549 20.8334 15.2777Z" fill="#1CB5BD"/>
<path fill-rule="evenodd" clip-rule="evenodd" d="M25 14.9306C25 16.4961 24.3781 17.9975 23.2711 19.1045C22.1641 20.2115 20.6627 20.8334 19.0972 20.8334C17.5317 20.8334 16.0303 20.2115 14.9233 19.1045C13.8164 17.9975 13.1945 16.4961 13.1945 14.9306C13.1945 13.3651 13.8164 11.8637 14.9233 10.7567C16.0303 9.64973 17.5317 9.02783 19.0972 9.02783C20.6627 9.02783 22.1641 9.64973 23.2711 10.7567C24.3781 11.8637 25 13.3651 25 14.9306ZM23.6111 14.9306C23.6111 16.1278 23.1356 17.2759 22.289 18.1224C21.4425 18.9689 20.2944 19.4445 19.0972 19.4445C17.9001 19.4445 16.752 18.9689 15.9054 18.1224C15.0589 17.2759 14.5833 16.1278 14.5833 14.9306C14.5833 13.7335 15.0589 12.5853 15.9054 11.7388C16.752 10.8923 17.9001 10.4167 19.0972 10.4167C20.2944 10.4167 21.4425 10.8923 22.289 11.7388C23.1356 12.5853 23.6111 13.7335 23.6111 14.9306Z" fill="black"/>
</svg>
