<svg width="19" height="27" viewBox="0 0 19 27" fill="none" xmlns="http://www.w3.org/2000/svg">
<path d="M10.9297 13.5L18.6816 6.50604C18.8255 6.37606 18.927 6.20475 18.9728 6.01484C19.0186 5.82493 19.0064 5.62539 18.9379 5.44267C18.8693 5.25995 18.7477 5.10269 18.5891 4.99174C18.4305 4.88079 18.2425 4.82139 18.0499 4.82143H15.1999V0H13.2999V6.75H15.5514L9.5 12.2098L3.44861 6.75H5.70007V0H3.8001V4.82143H0.950151C0.757541 4.82139 0.569471 4.88079 0.41088 4.99174C0.252288 5.10269 0.130668 5.25995 0.0621473 5.44267C-0.00637369 5.62539 -0.0185587 5.82493 0.0272084 6.01484C0.0729755 6.20475 0.174532 6.37606 0.318412 6.50604L8.07028 13.5L0.318412 20.494C0.174532 20.6239 0.0729755 20.7952 0.0272084 20.9852C-0.0185587 21.1751 -0.00637369 21.3746 0.0621473 21.5573C0.130668 21.7401 0.252288 21.8973 0.41088 22.0083C0.569471 22.1192 0.757541 22.1786 0.950151 22.1786H3.8001V27H5.70007V20.25H3.44861L9.5 14.7902L15.5514 20.25H13.2999V27H15.1999V22.1786H18.0499C18.2424 22.1784 18.4303 22.1189 18.5888 22.0079C18.7472 21.8968 18.8687 21.7396 18.9371 21.5569C19.0055 21.3742 19.0176 21.1747 18.9718 20.9849C18.926 20.7951 18.8245 20.6239 18.6806 20.494L10.9297 13.5Z" fill="black"/>
</svg>
