<svg width="25" height="25" viewBox="0 0 25 25" fill="none" xmlns="http://www.w3.org/2000/svg">
<path d="M21.2514 7.5C20.3678 7.49833 19.5121 7.8094 18.8359 8.37812C18.1597 8.94685 17.7067 9.73652 17.5569 10.6073C17.4072 11.478 17.5705 12.3737 18.0179 13.1356C18.4653 13.8975 19.1679 14.4765 20.0013 14.77V16.875C20.0013 18.3668 19.4086 19.7976 18.3537 20.8525C17.2987 21.9074 15.8679 22.5 14.3759 22.5C12.884 22.5 11.4532 21.9074 10.3982 20.8525C9.34325 19.7976 8.75058 18.3668 8.75058 16.875V16.1375C10.4966 15.8414 12.0816 14.9374 13.2255 13.5855C14.3693 12.2336 14.9982 10.5208 15.001 8.75V1.25C15.001 0.918479 14.8693 0.600537 14.6349 0.366116C14.4004 0.131696 14.0825 0 13.7509 0H11.2507C10.9192 0 10.6012 0.131696 10.3668 0.366116C10.1324 0.600537 10.0007 0.918479 10.0007 1.25C10.0007 1.58152 10.1324 1.89946 10.3668 2.13388C10.6012 2.3683 10.9192 2.5 11.2507 2.5H12.5008V8.75C12.5008 10.0761 11.974 11.3479 11.0363 12.2855C10.0985 13.2232 8.82667 13.75 7.5005 13.75C6.17433 13.75 4.90247 13.2232 3.96473 12.2855C3.02698 11.3479 2.50017 10.0761 2.50017 8.75V2.5H3.75025C4.08179 2.5 4.39975 2.3683 4.63419 2.13388C4.86863 1.89946 5.00033 1.58152 5.00033 1.25C5.00033 0.918479 4.86863 0.600537 4.63419 0.366116C4.39975 0.131696 4.08179 0 3.75025 0H1.25008C0.91854 0 0.600577 0.131696 0.366141 0.366116C0.131705 0.600537 0 0.918479 0 1.25V8.75C0.00279053 10.5208 0.631702 12.2336 1.77553 13.5855C2.91935 14.9374 4.50441 15.8414 6.25041 16.1375V16.875C6.25041 19.0299 7.10649 21.0965 8.63033 22.6202C10.1542 24.144 12.2209 25 14.3759 25C16.531 25 18.5977 24.144 20.1216 22.6202C21.6454 21.0965 22.5015 19.0299 22.5015 16.875V14.77C23.3349 14.4765 24.0375 13.8975 24.4849 13.1356C24.9323 12.3737 25.0956 11.478 24.9459 10.6073C24.7962 9.73652 24.3431 8.94685 23.6669 8.37812C22.9907 7.8094 22.135 7.49833 21.2514 7.5ZM21.2514 12.5C21.0042 12.5 20.7625 12.4267 20.5569 12.2893C20.3513 12.152 20.1911 11.9568 20.0965 11.7284C20.0019 11.4999 19.9771 11.2486 20.0253 11.0061C20.0736 10.7637 20.1926 10.5409 20.3675 10.3661C20.5423 10.1913 20.765 10.0722 21.0075 10.024C21.25 9.97579 21.5014 10.0005 21.7298 10.0951C21.9582 10.1898 22.1535 10.35 22.2908 10.5555C22.4282 10.7611 22.5015 11.0028 22.5015 11.25C22.5012 11.5814 22.3693 11.8992 22.135 12.1335C21.9006 12.3679 21.5828 12.4997 21.2514 12.5Z" fill="black"/>
<path d="M21.2514 12.5C21.0042 12.5 20.7625 12.4267 20.5569 12.2893C20.3513 12.152 20.1911 11.9568 20.0965 11.7284C20.0019 11.4999 19.9771 11.2486 20.0253 11.0061C20.0736 10.7637 20.1926 10.5409 20.3675 10.3661C20.5423 10.1913 20.765 10.0722 21.0075 10.024C21.25 9.97579 21.5014 10.0005 21.7298 10.0951C21.9582 10.1898 22.1535 10.35 22.2908 10.5555C22.4282 10.7611 22.5015 11.0028 22.5015 11.25C22.5012 11.5814 22.3693 11.8992 22.135 12.1335C21.9006 12.3679 21.5828 12.4997 21.2514 12.5Z" fill="#1CB5BD"/>
</svg>
