<svg width="46" height="21" viewBox="0 0 46 21" fill="none" xmlns="http://www.w3.org/2000/svg">
<path fill-rule="evenodd" clip-rule="evenodd" d="M7.91795 0.428589C7.88484 0.199191 7.69841 0.0226196 7.46756 0.00199849C7.2367 -0.0186226 7.02194 0.122113 6.9487 0.342011L3.60107 10.3926H0.5C0.223858 10.3926 0 10.6165 0 10.8926C0 11.1688 0.223858 11.3926 0.5 11.3926H3.96154C4.17679 11.3926 4.36789 11.2548 4.43591 11.0506L7.22995 2.66207L9.69743 19.7578C9.73108 19.9909 9.9229 20.169 10.1579 20.1852C10.3929 20.2014 10.6074 20.0513 10.6727 19.825L14.3573 7.06089L16.7683 15.0345C16.8279 15.2314 17.002 15.3718 17.2071 15.3882C17.4122 15.4046 17.6064 15.2936 17.6965 15.1086L19.505 11.3926H23.3457H24.0385H26.8072C27.0225 11.3926 27.2136 11.2548 27.2816 11.0506L30.0757 2.66207L32.5431 19.7578C32.5768 19.9909 32.7686 20.169 33.0036 20.1852C33.2386 20.2014 33.4531 20.0513 33.5184 19.825L37.203 7.06089L39.614 15.0345C39.6754 15.2374 39.858 15.3795 40.0697 15.3892C40.2814 15.399 40.4763 15.2741 40.556 15.0777L42.3748 10.5932H44.8072C45.0834 10.5932 45.3072 10.3693 45.3072 10.0932C45.3072 9.81704 45.0834 9.59318 44.8072 9.59318H42.038C41.8344 9.59318 41.6512 9.71661 41.5747 9.90526L40.1614 13.3898L37.6704 5.15188C37.6063 4.9398 37.4103 4.79521 37.1887 4.79661C36.9671 4.79801 36.7729 4.94505 36.7115 5.15793L33.2013 17.3178L30.7636 0.428589C30.7305 0.199191 30.5441 0.0226196 30.3133 0.00199849C30.0824 -0.0186226 29.8676 0.122113 29.7944 0.342011L26.4468 10.3926H24.0385H23.3457H19.1923C19.001 10.3926 18.8264 10.5018 18.7427 10.6738L17.356 13.5231L14.8247 5.15188C14.7606 4.9398 14.5646 4.79521 14.343 4.79661C14.1214 4.79801 13.9272 4.94505 13.8658 5.15793L10.3556 17.3178L7.91795 0.428589Z" fill="black"/>
</svg>
