<svg width="26" height="27" viewBox="0 0 26 27" fill="none" xmlns="http://www.w3.org/2000/svg">
<path d="M19.2349 5.51025C18.453 4.01416 16.4734 4.01416 15.6914 5.51025L11.1355 14.2302C10.5347 15.3827 10.1497 16.7149 10.1497 18.169C10.1494 19.3328 10.3835 20.4825 10.8357 21.5371C11.2879 22.5918 11.947 23.5257 12.7667 24.2732C13.5864 25.0206 14.5467 25.5634 15.58 25.8633C16.6133 26.1632 17.6945 26.2129 18.7474 26.0089C21.429 25.5117 23.6364 23.3241 24.4397 20.524C25.1004 18.2226 24.7294 16.1068 23.8562 14.365L23.8535 14.3592L19.2343 5.51025H19.2349Z" fill="black"/>
<g clip-path="url(#clip0_848_1520)">
<path d="M12.966 3.00292C12.184 1.50684 10.2045 1.50684 9.42249 3.00292L4.86653 11.7228C4.26573 12.8753 3.88074 14.2076 3.88074 15.6617C3.88044 16.8254 4.11462 17.9752 4.56678 19.0298C5.01894 20.0844 5.67808 21.0184 6.49778 21.7658C7.31748 22.5133 8.2778 23.0561 9.31111 23.356C10.3444 23.6559 11.4256 23.7056 12.4784 23.5016C15.1601 23.0044 17.3674 20.8168 18.1707 18.0167C18.8315 15.7153 18.4605 13.5995 17.5872 11.8577L17.5846 11.8519L12.9653 3.00292H12.966Z" fill="#1CB5BD"/>
<path d="M11.4798 17.5101C11.4798 17.9365 11.4268 18.3251 11.3208 18.6758C11.2149 19.0239 11.0534 19.3242 10.8364 19.5765C10.6219 19.8288 10.3495 20.023 10.0189 20.1593C9.68843 20.293 9.29736 20.3599 8.84574 20.3599C8.39412 20.3599 8.00305 20.293 7.67254 20.1593C7.34202 20.023 7.06827 19.8288 6.8513 19.5765C6.63684 19.3242 6.47663 19.0227 6.37066 18.672C6.26469 18.3213 6.21171 17.9315 6.21171 17.5026C6.21171 16.9298 6.30506 16.4315 6.49177 16.0077C6.68099 15.5813 6.97114 15.2508 7.36221 15.0161C7.75327 14.7815 8.25031 14.6642 8.85331 14.6642C9.45379 14.6642 9.94704 14.7815 10.3331 15.0161C10.7216 15.2508 11.0092 15.5813 11.1959 16.0077C11.3852 16.4341 11.4798 16.9349 11.4798 17.5101ZM7.44168 17.5101C7.44168 17.8961 7.48962 18.2292 7.58549 18.5092C7.68389 18.7868 7.83653 19.0012 8.04342 19.1526C8.25031 19.3015 8.51775 19.3759 8.84574 19.3759C9.17878 19.3759 9.44874 19.3015 9.65563 19.1526C9.86251 19.0012 10.0126 18.7868 10.106 18.5092C10.2019 18.2292 10.2498 17.8961 10.2498 17.5101C10.2498 16.9298 10.1413 16.4732 9.92433 16.1401C9.70735 15.8071 9.35034 15.6406 8.85331 15.6406C8.52279 15.6406 8.25283 15.7163 8.04342 15.8676C7.83653 16.0165 7.68389 16.231 7.58549 16.511C7.48962 16.7885 7.44168 17.1216 7.44168 17.5101ZM16.1082 20.2842H12.2405V19.4705L13.6294 18.0664C13.9094 17.7788 14.134 17.5391 14.303 17.3474C14.4746 17.1531 14.5982 16.9765 14.6739 16.8176C14.7521 16.6586 14.7912 16.4883 14.7912 16.3066C14.7912 16.0871 14.7294 15.9231 14.6058 15.8147C14.4847 15.7036 14.3219 15.6481 14.1176 15.6481C13.9031 15.6481 13.695 15.6973 13.4931 15.7957C13.2913 15.8941 13.0806 16.0342 12.8611 16.2158L12.2253 15.4627C12.3843 15.3265 12.552 15.1978 12.7287 15.0767C12.9078 14.9556 13.1147 14.8584 13.3493 14.7853C13.5865 14.7096 13.8703 14.6717 14.2008 14.6717C14.5642 14.6717 14.8757 14.7373 15.1356 14.8685C15.398 14.9997 15.5999 15.1789 15.7411 15.4059C15.8824 15.6305 15.9531 15.8853 15.9531 16.1704C15.9531 16.4757 15.8925 16.7545 15.7714 17.0068C15.6503 17.2591 15.4737 17.5089 15.2416 17.7561C15.012 18.0034 14.7345 18.2771 14.409 18.5774L13.6975 19.2472V19.3002H16.1082V20.2842Z" fill="white"/>
</g>
<defs>
<clipPath id="clip0_848_1520">
<rect width="21.3144" height="23.1951" fill="white" transform="translate(0.746216 1.25391)"/>
</clipPath>
</defs>
</svg>
