<svg width="31" height="25" viewBox="0 0 31 25" fill="none" xmlns="http://www.w3.org/2000/svg">
<path d="M29.45 10.9365H23.343C23.235 10.9217 23.1255 10.9217 23.0175 10.9365H22.754C22.673 10.9831 22.5953 11.0353 22.5215 11.0927C22.4352 11.1502 22.3524 11.2128 22.2735 11.2802C22.2218 11.3441 22.1751 11.4121 22.134 11.4834C22.063 11.5818 22.0007 11.6864 21.948 11.7959L19.468 18.687L13.0045 1.02949C12.8959 0.727826 12.6978 0.467189 12.4371 0.282999C12.1764 0.0988092 11.8658 0 11.5475 0C11.2292 0 10.9186 0.0988092 10.6579 0.282999C10.3972 0.467189 10.1991 0.727826 10.0905 1.02949L6.51 10.9365H1.55C1.13891 10.9365 0.744666 11.1011 0.453984 11.3941C0.163303 11.6872 0 12.0847 0 12.4991C0 12.9135 0.163303 13.311 0.453984 13.604C0.744666 13.8971 1.13891 14.0617 1.55 14.0617H8.215C8.3031 14.0189 8.38627 13.9665 8.463 13.9054C8.54931 13.848 8.63212 13.7854 8.711 13.7179L8.8505 13.5148C8.92438 13.4183 8.9868 13.3134 9.0365 13.2023L11.5475 6.12361L17.9955 23.9687C18.1038 24.2707 18.3018 24.5317 18.5625 24.7162C18.8232 24.9008 19.134 24.9999 19.4525 25C19.771 24.9999 20.0818 24.9008 20.3425 24.7162C20.6032 24.5317 20.8012 24.2707 20.9095 23.9687L24.4745 14.0617H29.45C29.8611 14.0617 30.2553 13.8971 30.546 13.604C30.8367 13.311 31 12.9135 31 12.4991C31 12.0847 30.8367 11.6872 30.546 11.3941C30.2553 11.1011 29.8611 10.9365 29.45 10.9365Z" fill="black"/>
</svg>
