<svg width="13" height="27" viewBox="0 0 13 27" fill="none" xmlns="http://www.w3.org/2000/svg">
<path fill-rule="evenodd" clip-rule="evenodd" d="M4.71013 3.12252C5.18481 2.64785 5.8286 2.38118 6.4999 2.38118C6.83229 2.38118 7.16142 2.44665 7.46851 2.57385C7.7756 2.70105 8.05463 2.88749 8.28966 3.12252C8.5247 3.35756 8.71114 3.63659 8.83834 3.94367C8.96554 4.25076 9.031 4.5799 9.031 4.91229V16.329L9.36222 16.601C10.0838 17.1914 10.6051 17.9905 10.8547 18.8888C11.1043 19.787 11.0701 20.7405 10.7566 21.6186C10.4432 22.4966 9.86584 23.2563 9.10379 23.7934C8.34173 24.3305 7.43222 24.6188 6.4999 24.6188C5.56757 24.6188 4.65806 24.3305 3.89601 23.7934C3.13395 23.2563 2.55663 22.4966 2.24317 21.6186C1.92972 20.7405 1.89546 19.787 2.14509 18.8888C2.39472 17.9905 2.91603 17.1914 3.63757 16.601L3.96879 16.329V4.91229C3.96879 4.241 4.23546 3.5972 4.71013 3.12252ZM3.43173 1.84412C2.618 2.65785 2.16085 3.7615 2.16085 4.91229V15.4931C1.23821 16.3623 0.597889 17.4885 0.32286 18.7259C0.0478316 19.9633 0.150774 21.2548 0.618348 22.433C1.08592 23.6112 1.89657 24.6218 2.94526 25.3339C3.99394 26.0459 5.23231 26.4266 6.4999 26.4266C7.76748 26.4266 9.00585 26.0459 10.0545 25.3339C11.1032 24.6218 11.9139 23.6112 12.3814 22.433C12.849 21.2548 12.952 19.9633 12.6769 18.7259C12.4019 17.4885 11.7616 16.3623 10.8389 15.4931V4.91229C10.8389 3.7615 10.3818 2.65785 9.56806 1.84412C8.75434 1.03039 7.65068 0.573242 6.4999 0.573242C5.34911 0.573242 4.24546 1.03039 3.43173 1.84412Z" fill="black"/>
<path d="M9.39259 20.0989C9.39255 20.632 9.24523 21.1546 8.96691 21.6092C8.68858 22.0638 8.29007 22.4326 7.81535 22.675C7.34064 22.9174 6.80818 23.0239 6.27675 22.9828C5.74532 22.9417 5.23559 22.7545 4.80381 22.442C4.37203 22.1295 4.03499 21.7037 3.8299 21.2117C3.62481 20.7197 3.55964 20.1807 3.64159 19.654C3.72353 19.1273 3.94941 18.6335 4.29428 18.2271C4.63915 17.8207 5.0896 17.5175 5.59593 17.3509V9.43213C5.59593 9.19238 5.69117 8.96245 5.86069 8.79292C6.03022 8.6234 6.26015 8.52816 6.4999 8.52816C6.73964 8.52816 6.96957 8.6234 7.1391 8.79292C7.30863 8.96245 7.40386 9.19238 7.40386 9.43213V17.3509C7.98235 17.5414 8.48597 17.9096 8.84304 18.403C9.20011 18.8964 9.39242 19.4899 9.39259 20.0989Z" fill="#1CB5BD"/>
</svg>
