<svg width="25" height="25" viewBox="0 0 25 25" fill="none" xmlns="http://www.w3.org/2000/svg">
<path d="M3.14825 15.9006C3.14825 15.1125 3.2988 14.3553 3.59989 13.6291C3.90099 12.9029 4.3305 12.2565 4.88842 11.6897L7.90383 8.68757L16.3124 17.0962L13.3103 20.1116C12.7524 20.6695 12.1103 21.099 11.3842 21.4001C10.658 21.7012 9.89639 21.8518 9.09936 21.8518C8.45289 21.8518 7.82855 21.7543 7.22635 21.5595C6.62416 21.3647 6.06181 21.068 5.53932 20.6695L1.19554 25L0 23.8045L4.3305 19.4607C3.94084 18.947 3.6486 18.3891 3.45377 17.7869C3.25894 17.1847 3.1571 16.556 3.14825 15.9006ZM9.09936 20.1514C9.66614 20.1514 10.2063 20.0452 10.72 19.8326C11.2336 19.6201 11.6941 19.3101 12.1015 18.9028L13.9081 17.0962L7.90383 11.0919L6.09724 12.8985C5.69872 13.297 5.3932 13.7531 5.18066 14.2667C4.96812 14.7804 4.85742 15.325 4.84857 15.9006C4.84857 16.4851 4.95926 17.0342 5.18066 17.5478C5.40205 18.0615 5.70315 18.5131 6.08395 18.9028C6.46475 19.2924 6.9164 19.5979 7.43889 19.8193C7.96139 20.0407 8.51488 20.1514 9.09936 20.1514ZM20.6695 5.53932C21.0592 6.05296 21.3514 6.61087 21.5462 7.21307C21.7411 7.81527 21.8429 8.44403 21.8518 9.09936C21.8518 9.88753 21.7012 10.6447 21.4001 11.3709C21.099 12.0971 20.6695 12.7435 20.1116 13.3103L17.0962 16.3124L8.68757 7.90383L11.6897 4.88842C12.2476 4.3305 12.8897 3.90099 13.6158 3.59989C14.342 3.2988 15.1036 3.14825 15.9006 3.14825C16.5471 3.14825 17.1714 3.24566 17.7736 3.44049C18.3758 3.63532 18.9382 3.93199 19.4607 4.3305L23.8045 0L25 1.19554L20.6695 5.53932ZM18.9028 12.1015C19.3013 11.703 19.6068 11.2469 19.8193 10.7333C20.0319 10.2196 20.1426 9.67499 20.1514 9.09936C20.1514 8.51488 20.0407 7.96582 19.8193 7.45218C19.5979 6.93854 19.2924 6.49132 18.9028 6.11052C18.5131 5.72972 18.0615 5.42419 17.5478 5.19394C17.0342 4.96369 16.4851 4.84857 15.9006 4.84857C15.3339 4.84857 14.7937 4.95484 14.28 5.16738C13.7664 5.37991 13.3059 5.68987 12.8985 6.09724L11.0919 7.90383L17.0962 13.9081L18.9028 12.1015Z" fill="#1CB5BD"/>
</svg>
