<svg width="25" height="25" viewBox="0 0 25 25" fill="none" xmlns="http://www.w3.org/2000/svg">
<path d="M24.7705 0.2295C24.8432 0.302064 24.901 0.388268 24.9403 0.483173C24.9797 0.578078 25 0.67982 25 0.782572C25 0.885324 24.9797 0.987066 24.9403 1.08197C24.901 1.17688 24.8432 1.26308 24.7705 1.33564L22.1645 3.94165C23.1068 5.15513 23.574 6.67068 23.4785 8.20407C23.383 9.73746 22.7313 11.1833 21.6458 12.2705L21.1771 12.7392L21.1724 12.7439L20.6896 13.2267C20.382 13.5339 19.9651 13.7065 19.5304 13.7065C19.0956 13.7065 18.6787 13.5339 18.3711 13.2267L11.7733 6.62889C11.621 6.47656 11.5001 6.2957 11.4176 6.09666C11.3352 5.89762 11.2928 5.68429 11.2928 5.46884C11.2928 5.2534 11.3352 5.04007 11.4176 4.84102C11.5001 4.64198 11.621 4.46113 11.7733 4.3088L12.7279 3.35576C13.8147 2.26889 15.261 1.61636 16.795 1.52085C18.3291 1.42533 19.8452 1.89339 21.0584 2.83706L23.6644 0.2295C23.7369 0.156751 23.8231 0.0990339 23.918 0.0596526C24.0129 0.0202713 24.1147 0 24.2174 0C24.3202 0 24.4219 0.0202713 24.5168 0.0596526C24.6117 0.0990339 24.6979 0.156751 24.7705 0.2295ZM20.5303 4.44941C19.6398 3.5651 18.4352 3.06959 17.1802 3.07135C15.9252 3.0731 14.7221 3.57198 13.834 4.45878L13.3653 4.92749C13.2942 4.99858 13.2378 5.08298 13.1994 5.17586C13.1609 5.26875 13.1411 5.3683 13.1411 5.46884C13.1411 5.56938 13.1609 5.66894 13.1994 5.76183C13.2378 5.85471 13.2942 5.93911 13.3653 6.0102L18.9898 11.6347C19.2866 11.9331 19.771 11.9346 20.0694 11.6378L20.0725 11.6347L20.5412 11.166C21.4284 10.2781 21.9275 9.07489 21.9293 7.81978C21.9311 6.56466 21.4353 5.36002 20.5506 4.46972L20.5397 4.46035L20.5303 4.44941ZM11.4905 10.3863C11.637 10.5328 11.7192 10.7315 11.7192 10.9386C11.7192 11.1458 11.637 11.3444 11.4905 11.4909L8.91732 14.0626L10.9374 16.0827L13.5091 13.5095C13.5817 13.4369 13.6679 13.3792 13.7628 13.3399C13.8577 13.3006 13.9594 13.2804 14.0621 13.2804C14.1649 13.2804 14.2666 13.3006 14.3615 13.3399C14.4564 13.3792 14.5426 13.4369 14.6152 13.5095C14.6878 13.5821 14.7455 13.6683 14.7848 13.7632C14.8241 13.8581 14.8443 13.9598 14.8443 14.0626C14.8443 14.1653 14.8241 14.267 14.7848 14.3619C14.7455 14.4568 14.6878 14.543 14.6152 14.6156L12.042 17.1873L12.7404 17.8856C13.1769 18.3222 13.4221 18.9142 13.4221 19.5316C13.4221 20.1489 13.1769 20.7409 12.7404 21.1775L12.2717 21.6462C11.1849 22.7331 9.7386 23.3856 8.20457 23.4811C6.67054 23.5766 5.15444 23.1086 3.94124 22.1649L1.33523 24.7709C1.18855 24.9176 0.989605 25 0.782162 25C0.57472 25 0.375774 24.9176 0.22909 24.7709C0.082406 24.6242 3.09113e-09 24.4253 0 24.2178C-3.09113e-09 24.0104 0.082406 23.8114 0.22909 23.6648L2.83665 21.0588C1.89322 19.8459 1.42514 18.3302 1.52037 16.7965C1.61559 15.2629 2.26756 13.8168 3.35379 12.7299L3.8225 12.2612C4.03869 12.0448 4.29539 11.8732 4.57795 11.7561C4.8605 11.639 5.16336 11.5787 5.46922 11.5787C5.77507 11.5787 6.07793 11.639 6.36048 11.7561C6.64304 11.8732 6.89974 12.0448 7.11593 12.2612L7.81274 12.958L10.3844 10.3848C10.4569 10.312 10.5431 10.2543 10.638 10.2149C10.733 10.1756 10.8347 10.1553 10.9374 10.1553C11.0402 10.1553 11.1419 10.1756 11.2368 10.2149C11.3317 10.2543 11.418 10.312 11.4905 10.3848V10.3863ZM4.46775 20.5494C5.3579 21.4348 6.56277 21.9312 7.81826 21.9297C9.07376 21.9282 10.2775 21.4291 11.1655 20.5416L11.6343 20.0729C11.7053 20.0018 11.7617 19.9174 11.8002 19.8245C11.8387 19.7317 11.8585 19.6321 11.8585 19.5316C11.8585 19.431 11.8387 19.3315 11.8002 19.2386C11.7617 19.1457 11.7053 19.0613 11.6343 18.9902L6.00979 13.3657C5.86628 13.2226 5.67188 13.1423 5.46922 13.1423C5.26655 13.1423 5.07215 13.2226 4.92864 13.3657L4.45994 13.8345C3.57114 14.7239 3.07187 15.9299 3.07187 17.1873C3.07187 18.4447 3.57114 19.6506 4.45994 20.5401L4.46775 20.5494Z" fill="#FF0000"/>
</svg>
