<svg width="15" height="25" viewBox="0 0 15 25" fill="none" xmlns="http://www.w3.org/2000/svg">
<path d="M11 20.1538C11 20.3783 10.8771 20.5935 10.6583 20.7522C10.4395 20.9109 10.1428 21 9.83333 21L5.16667 21C4.85725 21 4.5605 20.9109 4.34171 20.7522C4.12292 20.5935 4 20.3783 4 20.1538L4 10.8462C4 10.6217 4.12292 10.4065 4.34171 10.2478C4.5605 10.0891 4.85725 10 5.16667 10L9.83333 10C10.1428 10 10.4395 10.0891 10.6583 10.2478C10.8771 10.4065 11 10.6217 11 10.8462L11 20.1538Z" fill="#959595"/>
<path fill-rule="evenodd" clip-rule="evenodd" d="M-8.74228e-07 5L-1.63918e-07 21.25C-1.20444e-07 22.2446 0.395088 23.1984 1.09835 23.9017C1.80161 24.6049 2.75544 25 3.75 25L11.25 25C12.2446 25 13.1984 24.6049 13.9017 23.9016C14.6049 23.1984 15 22.2446 15 21.25L15 5C15 4.00544 14.6049 3.05161 13.9017 2.34835C13.1984 1.64509 12.2446 1.25 11.25 1.25C11.25 0.918478 11.1183 0.600534 10.8839 0.366113C10.6495 0.131692 10.3315 -2.35895e-06 10 -2.34446e-06L5 -2.12591e-06C4.66848 -2.11141e-06 4.35054 0.131693 4.11612 0.366113C3.8817 0.600534 3.75 0.918478 3.75 1.25C2.75544 1.25 1.80161 1.64509 1.09835 2.34835C0.395087 3.05161 -9.17702e-07 4.00544 -8.74228e-07 5ZM2.5 5L2.5 21.25C2.5 21.5815 2.6317 21.8995 2.86612 22.1339C3.10054 22.3683 3.41848 22.5 3.75 22.5L11.25 22.5C11.5815 22.5 11.8995 22.3683 12.1339 22.1339C12.3683 21.8995 12.5 21.5815 12.5 21.25L12.5 5C12.5 4.66848 12.3683 4.35053 12.1339 4.11611C11.8995 3.88169 11.5815 3.75 11.25 3.75L3.75 3.75C3.41848 3.75 3.10054 3.88169 2.86612 4.11611C2.6317 4.35053 2.5 4.66848 2.5 5Z" fill="black"/>
</svg>
