<svg width="16" height="25" viewBox="0 0 16 25" fill="none" xmlns="http://www.w3.org/2000/svg">
<path fill-rule="evenodd" clip-rule="evenodd" d="M0.470702 5L0.470703 21.25C0.470703 22.2446 0.865791 23.1984 1.56905 23.9017C2.27231 24.6049 3.22614 25 4.2207 25L11.7207 25C12.7153 25 13.6691 24.6049 14.3724 23.9016C15.0756 23.1984 15.4707 22.2446 15.4707 21.25L15.4707 5C15.4707 4.00544 15.0756 3.05161 14.3724 2.34835C13.6691 1.64509 12.7153 1.25 11.7207 1.25C11.7207 0.918479 11.589 0.600536 11.3546 0.366115C11.1202 0.131694 10.8022 -4.51605e-07 10.4707 -4.37114e-07L5.4707 -2.18557e-07C5.13918 -2.04066e-07 4.82124 0.131695 4.58682 0.366115C4.3524 0.600536 4.2207 0.91848 4.2207 1.25C3.22614 1.25 2.27231 1.64509 1.56905 2.34835C0.86579 3.05161 0.470702 4.00544 0.470702 5ZM2.9707 5L2.9707 21.25C2.9707 21.5815 3.1024 21.8995 3.33682 22.1339C3.57124 22.3683 3.88918 22.5 4.2207 22.5L11.7207 22.5C12.0522 22.5 12.3702 22.3683 12.6046 22.1339C12.839 21.8995 12.9707 21.5815 12.9707 21.25L12.9707 5C12.9707 4.66848 12.839 4.35054 12.6046 4.11612C12.3702 3.88169 12.0522 3.75 11.7207 3.75L4.2207 3.75C3.88918 3.75 3.57124 3.88169 3.33682 4.11612C3.1024 4.35054 2.9707 4.66848 2.9707 5Z" fill="black"/>
<rect x="4.2207" y="18.7266" width="7.5" height="2.51025" rx="1" fill="#D82121"/>
</svg>
