<svg width="15" height="25" viewBox="0 0 15 25" fill="none" xmlns="http://www.w3.org/2000/svg">
<path fill-rule="evenodd" clip-rule="evenodd" d="M-8.74228e-07 5L-1.63918e-07 21.25C-1.20444e-07 22.2446 0.395088 23.1984 1.09835 23.9017C1.80161 24.6049 2.75544 25 3.75 25L11.25 25C12.2446 25 13.1984 24.6049 13.9017 23.9016C14.6049 23.1984 15 22.2446 15 21.25L15 5C15 4.00544 14.6049 3.05161 13.9017 2.34835C13.1984 1.64509 12.2446 1.25 11.25 1.25C11.25 0.918479 11.1183 0.600536 10.8839 0.366115C10.6495 0.131694 10.3315 -4.51605e-07 10 -4.37114e-07L5 -2.18557e-07C4.66848 -2.04066e-07 4.35054 0.131695 4.11612 0.366115C3.8817 0.600536 3.75 0.91848 3.75 1.25C2.75544 1.25 1.80161 1.64509 1.09835 2.34835C0.395087 3.05161 -9.17701e-07 4.00544 -8.74228e-07 5ZM2.5 5L2.5 21.25C2.5 21.5815 2.6317 21.8995 2.86612 22.1339C3.10054 22.3683 3.41848 22.5 3.75 22.5L11.25 22.5C11.5815 22.5 11.8995 22.3683 12.1339 22.1339C12.3683 21.8995 12.5 21.5815 12.5 21.25L12.5 5C12.5 4.66848 12.3683 4.35054 12.1339 4.11612C11.8995 3.88169 11.5815 3.75 11.25 3.75L3.75 3.75C3.41848 3.75 3.10054 3.88169 2.86612 4.11612C2.6317 4.35054 2.5 4.66848 2.5 5Z" fill="black"/>
<rect x="3.75" y="12.5" width="7.5" height="9.01514" rx="1" fill="#959595"/>
</svg>
