<svg width="17" height="25" viewBox="0 0 17 25" fill="none" xmlns="http://www.w3.org/2000/svg">
<path d="M16.4164 0.489261C16.2326 0.334173 16.0143 0.211126 15.7739 0.127171C15.5336 0.0432152 15.2759 0 15.0157 0C14.7555 0 14.4978 0.0432152 14.2574 0.127171C14.0171 0.211126 13.7988 0.334173 13.615 0.489261L0.462849 11.5606C0.316128 11.6838 0.199725 11.8302 0.120303 11.9914C0.0408812 12.1526 0 12.3253 0 12.4998C0 12.6743 0.0408812 12.8471 0.120303 13.0083C0.199725 13.1694 0.316128 13.3158 0.462849 13.4391L13.615 24.5104C14.3905 25.1632 15.6409 25.1632 16.4164 24.5104C17.1919 23.8576 17.1919 22.8051 16.4164 22.1522L4.95769 12.4932L16.4322 2.83409C17.1919 2.19459 17.1919 1.12876 16.4164 0.489261Z" fill="black"/>
</svg>
