<svg width="16" height="22" viewBox="0 0 16 22" fill="none" xmlns="http://www.w3.org/2000/svg">
<path d="M14.5307 0.4346C14.368 0.298386 14.1748 0.190315 13.962 0.116577C13.7493 0.0428387 13.5212 0.00488281 13.2909 0.00488281C13.0606 0.00488281 12.8325 0.0428387 12.6198 0.116577C12.407 0.190315 12.2138 0.298386 12.0511 0.4346L0.409683 10.1585C0.279815 10.2668 0.176783 10.3953 0.106484 10.5369C0.0361854 10.6785 0 10.8302 0 10.9835C0 11.1367 0.0361854 11.2885 0.106484 11.43C0.176783 11.5716 0.279815 11.7001 0.409683 11.8084L12.0511 21.5323C12.7375 22.1057 13.8443 22.1057 14.5307 21.5323C15.2171 20.9589 15.2171 20.0345 14.5307 19.4611L4.38822 10.9776L14.5447 2.49405C15.2171 1.93238 15.2171 0.996269 14.5307 0.4346Z" fill="#DFECEF"/>
</svg>
