<svg width="25" height="25" viewBox="0 0 25 25" fill="none" xmlns="http://www.w3.org/2000/svg">
<path d="M22.2222 13.8889V20.8333C22.2222 21.5972 21.5972 22.2222 20.8333 22.2222H4.16667C3.40278 22.2222 2.77778 21.5972 2.77778 20.8333V13.8889C2.77778 13.125 2.15278 12.5 1.38889 12.5C0.625 12.5 0 13.125 0 13.8889V22.2222C0 23.75 1.25 25 2.77778 25H22.2222C23.75 25 25 23.75 25 22.2222V13.8889C25 13.125 24.375 12.5 23.6111 12.5C22.8472 12.5 22.2222 13.125 22.2222 13.8889ZM13.8889 13.4306L16.5 10.8194C16.6286 10.6909 16.7812 10.5889 16.9492 10.5193C17.1173 10.4497 17.2973 10.4139 17.4792 10.4139C17.661 10.4139 17.8411 10.4497 18.0091 10.5193C18.1771 10.5889 18.3297 10.6909 18.4583 10.8194C18.5869 10.948 18.6889 11.1007 18.7585 11.2687C18.8281 11.4367 18.8639 11.6168 18.8639 11.7986C18.8639 11.9805 18.8281 12.1605 18.7585 12.3285C18.6889 12.4965 18.5869 12.6492 18.4583 12.7778L13.4722 17.7639C13.3437 17.8926 13.1911 17.9948 13.0231 18.0645C12.8551 18.1342 12.675 18.1701 12.4931 18.1701C12.3112 18.1701 12.131 18.1342 11.963 18.0645C11.795 17.9948 11.6424 17.8926 11.5139 17.7639L6.52778 12.7778C6.26809 12.5181 6.12219 12.1659 6.12219 11.7986C6.12219 11.4314 6.26809 11.0791 6.52778 10.8194C6.78747 10.5598 7.13969 10.4139 7.50694 10.4139C7.8742 10.4139 8.22642 10.5598 8.48611 10.8194L11.1111 13.4306V1.38889C11.1111 0.625 11.7361 0 12.5 0C13.2639 0 13.8889 0.625 13.8889 1.38889V13.4306Z" fill="black"/>
</svg>
