<svg width="25" height="25" viewBox="0 0 25 25" fill="none" xmlns="http://www.w3.org/2000/svg">
<path d="M2.68817 25C1.94893 25 1.31586 24.7278 0.78898 24.1833C0.262099 23.6389 -0.000893775 22.9852 2.28198e-06 22.2222V2.77778C2.28198e-06 2.01389 0.263443 1.35972 0.790325 0.81528C1.31721 0.270835 1.94982 -0.000923568 2.68817 2.35805e-06H21.5054C22.2446 2.35805e-06 22.8777 0.272225 23.4046 0.816669C23.9314 1.36111 24.1944 2.01482 24.1935 2.77778V4.16667C24.1935 4.56019 24.0645 4.89028 23.8064 5.15695C23.5484 5.42361 23.2294 5.55648 22.8495 5.55556C22.4686 5.55556 22.1492 5.42222 21.8911 5.15556C21.6331 4.88889 21.5045 4.55926 21.5054 4.16667V2.77778H2.68817V22.2222H21.5054V20.8333C21.5054 20.4398 21.6344 20.1097 21.8925 19.8431C22.1505 19.5764 22.4695 19.4435 22.8495 19.4444C23.2303 19.4444 23.5497 19.5778 23.8078 19.8444C24.0659 20.1111 24.1944 20.4407 24.1935 20.8333V22.2222C24.1935 22.9861 23.9301 23.6403 23.4032 24.1847C22.8763 24.7292 22.2437 25.0009 21.5054 25H2.68817ZM20.3965 13.8889H9.4086C9.02778 13.8889 8.70833 13.7556 8.45027 13.4889C8.19221 13.2222 8.06362 12.8926 8.06452 12.5C8.06452 12.1065 8.19355 11.7764 8.45161 11.5097C8.70968 11.2431 9.02868 11.1102 9.4086 11.1111H20.3965L17.8763 8.47222C17.6299 8.21759 17.5009 7.89907 17.4892 7.51667C17.4776 7.13426 17.6066 6.80463 17.8763 6.52778C18.1228 6.27315 18.4364 6.14583 18.8172 6.14583C19.198 6.14583 19.5117 6.27315 19.7581 6.52778L24.5968 11.5278C24.8656 11.8056 25 12.1296 25 12.5C25 12.8704 24.8656 13.1944 24.5968 13.4722L19.7581 18.4722C19.5117 18.7268 19.2034 18.8602 18.8333 18.8722C18.4633 18.8843 18.1443 18.7509 17.8763 18.4722C17.6299 18.2176 17.5067 17.8935 17.5067 17.5C17.5067 17.1065 17.6299 16.7824 17.8763 16.5278L20.3965 13.8889Z" fill="black"/>
</svg>
