<svg width="22" height="22" viewBox="0 0 22 22" fill="none" xmlns="http://www.w3.org/2000/svg">
<path d="M19.813 13.2516V18.7194C19.813 19.3209 19.3209 19.813 18.7194 19.813H5.59662C4.99516 19.813 4.50305 19.3209 4.50305 18.7194V13.2516C4.50305 12.6501 4.01095 12.158 3.40949 12.158C2.80802 12.158 2.31592 12.6501 2.31592 13.2516V19.813C2.31592 21.0159 3.30013 22.0001 4.50305 22.0001H19.813C21.0159 22.0001 22.0001 21.0159 22.0001 19.813V13.2516C22.0001 12.6501 21.508 12.158 20.9066 12.158C20.3051 12.158 19.813 12.6501 19.813 13.2516ZM13.2516 12.8907L15.3075 10.8348C15.4087 10.7336 15.5289 10.6533 15.6612 10.5985C15.7935 10.5437 15.9353 10.5155 16.0785 10.5155C16.2216 10.5155 16.3634 10.5437 16.4957 10.5985C16.628 10.6533 16.7482 10.7336 16.8494 10.8348C16.9507 10.9361 17.031 11.0562 17.0858 11.1885C17.1406 11.3208 17.1688 11.4626 17.1688 11.6058C17.1688 11.749 17.1406 11.8907 17.0858 12.023C17.031 12.1553 16.9507 12.2755 16.8494 12.3767L12.9235 16.3026C12.8224 16.404 12.7022 16.4845 12.5699 16.5393C12.4376 16.5942 12.2958 16.6224 12.1526 16.6224C12.0093 16.6224 11.8675 16.5942 11.7352 16.5393C11.6029 16.4845 11.4828 16.404 11.3816 16.3026L7.45568 12.3767C7.25121 12.1723 7.13634 11.8949 7.13634 11.6058C7.13634 11.3166 7.25121 11.0393 7.45568 10.8348C7.66016 10.6303 7.93748 10.5155 8.22665 10.5155C8.51582 10.5155 8.79314 10.6303 8.99761 10.8348L11.0645 12.8907V3.40949C11.0645 2.80802 11.5566 2.31592 12.158 2.31592C12.7595 2.31592 13.2516 2.80802 13.2516 3.40949V12.8907Z" fill="#FBFEFF"/>
</svg>
